<svg xmlns="http://www.w3.org/2000/svg" viewBox="0 0 240 240">
  <path fill-rule="evenodd" d="M 206.779 143.103 Q 207.693 140.246 210.691 140.140 L 227.300 139.554 Q 230.298 139.449 230.298 136.449 L 230.298 103.551 Q 230.298 100.551 227.300 100.446 L 210.691 99.860 Q 207.693 99.754 206.779 96.897 L 204.064 88.416 Q 203.149 85.558 201.776 82.891 L 197.698 74.974 Q 196.324 72.307 198.370 70.113 L 209.700 57.954 Q 211.745 55.759 209.624 53.638 L 186.362 30.376 Q 184.241 28.255 182.046 30.300 L 169.887 41.630 Q 167.693 43.676 165.026 42.302 L 157.109 38.224 Q 154.442 36.851 151.584 35.936 L 143.103 33.221 Q 140.246 32.307 140.140 29.309 L 139.554 12.700 Q 139.449 9.702 136.449 9.702 L 103.551 9.702 Q 100.551 9.702 100.446 12.700 L 99.860 29.309 Q 99.754 32.307 96.897 33.221 L 88.416 35.936 Q 85.558 36.851 82.891 38.224 L 74.974 42.302 Q 72.307 43.676 70.113 41.630 L 57.954 30.300 Q 55.759 28.255 53.638 30.376 L 30.376 53.638 Q 28.255 55.759 30.300 57.954 L 41.630 70.113 Q 43.676 72.307 42.302 74.974 L 38.224 82.891 Q 36.851 85.558 35.936 88.416 L 33.221 96.897 Q 32.307 99.754 29.309 99.860 L 12.700 100.446 Q 9.702 100.551 9.702 103.551 L 9.702 136.449 Q 9.702 139.449 12.700 139.554 L 29.309 140.140 Q 32.307 140.246 33.221 143.103 L 35.936 151.584 Q 36.851 154.442 38.224 157.109 L 42.302 165.026 Q 43.676 167.693 41.630 169.887 L 30.300 182.046 Q 28.255 184.241 30.376 186.362 L 53.638 209.624 Q 55.759 211.745 57.954 209.700 L 70.113 198.370 Q 72.307 196.324 74.974 197.698 L 82.891 201.776 Q 85.558 203.149 88.416 204.064 L 96.897 206.779 Q 99.754 207.693 99.860 210.691 L 100.446 227.300 Q 100.551 230.298 103.551 230.298 L 136.449 230.298 Q 139.449 230.298 139.554 227.300 L 140.140 210.691 Q 140.246 207.693 143.103 206.779 L 151.584 204.064 Q 154.442 203.149 157.109 201.776 L 165.026 197.698 Q 167.693 196.324 169.887 198.370 L 182.046 209.700 Q 184.241 211.745 186.362 209.624 L 209.624 186.362 Q 211.745 184.241 209.700 182.046 L 198.370 169.887 Q 196.324 167.693 197.698 165.026 L 201.776 157.109 Q 203.149 154.442 204.064 151.584 L 206.779 143.103 Z M 107.722 64.681 Q 110.982 59.407 105.190 61.619 L 63.313 77.615 Q 57.522 79.827 60.781 85.101 L 74.682 107.593 Q 77.942 112.867 81.201 107.593 L 107.722 64.681 Z M 123.260 64.355 Q 120.000 59.081 116.740 64.355 L 87.927 110.976 Q 84.668 116.250 90.868 116.250 L 149.132 116.250 Q 155.332 116.250 152.073 110.976 L 123.260 64.355 Z M 134.810 61.619 Q 129.018 59.407 132.278 64.681 L 158.799 107.593 Q 162.058 112.867 165.318 107.593 L 179.219 85.101 Q 182.478 79.827 176.687 77.615 L 134.810 61.619 Z M 58.957 96.416 Q 55.698 91.142 55.698 97.342 L 55.698 142.658 Q 55.698 148.858 58.957 143.584 L 70.274 125.274 Q 73.533 120.000 70.274 114.726 L 58.957 96.416 Z M 184.302 97.342 Q 184.302 91.142 181.043 96.416 L 169.726 114.726 Q 166.467 120.000 169.726 125.274 L 181.043 143.584 Q 184.302 148.858 184.302 142.658 L 184.302 97.342 Z M 81.201 132.407 Q 77.942 127.133 74.682 132.407 L 60.781 154.899 Q 57.522 160.173 63.313 162.385 L 105.190 178.381 Q 110.982 180.593 107.722 175.319 L 81.201 132.407 Z M 90.868 123.750 Q 84.668 123.750 87.927 129.024 L 116.740 175.645 Q 120.000 180.919 123.260 175.645 L 152.073 129.024 Q 155.332 123.750 149.132 123.750 L 90.868 123.750 Z M 165.318 132.407 Q 162.058 127.133 158.799 132.407 L 132.278 175.319 Q 129.018 180.593 134.810 178.381 L 176.687 162.385 Q 182.478 160.173 179.219 154.899 L 165.318 132.407 Z"/>
</svg>