<?xml version="1.0" encoding="UTF-8" standalone="no"?>
<svg
   viewBox="0 0 24 24"
   version="1.1"
   xmlns="http://www.w3.org/2000/svg">
  <path
     d="M 3.5999196,0 C 1.6055112,0 0,1.6055112 0,3.5999196 V 20.40008 C 0,22.394489 1.6055112,24 3.5999196,24 H 20.40008 C 22.394489,24 24,22.394489 24,20.40008 V 3.5999196 C 24,1.6055112 22.394489,0 20.40008,0 Z M 16.031088,4.887534 a 3.6000151,3.6000151 0 0 1 3.600044,3.599922 3.6000151,3.6000151 0 0 1 -3.600044,3.600041 3.6000151,3.6000151 0 0 1 -3.600043,-3.600041 3.6000151,3.6000151 0 0 1 3.600043,-3.599922 z M 8.1395664,12.23397 A 3.6000151,3.6000151 0 0 1 11.739611,15.834013 3.6000151,3.6000151 0 0 1 8.1395664,19.434058 3.6000151,3.6000151 0 0 1 4.5395256,15.834013 3.6000151,3.6000151 0 0 1 8.1395664,12.23397 Z"
     id="path1" />
</svg>
