<svg xmlns="http://www.w3.org/2000/svg" viewBox="-24.692383 -3.354492 49.384766 6.708984">
		<g transform="scale(1,-1)">
			<path d="M-22.250977 3.266602 Q-21.352538 2.963868, -20.649414 2.045899 Q-19.926758 0.981446, -19.926758 0.063477 Q-19.926758 0.03418, -19.926758 -0.014648 Q-19.926758 -1.108398, -20.81543 -2.15332 Q-21.254883 -2.592773, -21.459961 -2.700195 Q-21.850586 -2.973632, -22.338867 -3.208007 Q-22.563477 -3.305664, -22.651367 -3.33496 Q-23.87207 -2.827148, -24.389648 -1.704101 Q-24.692383 -0.99121, -24.692383 -0.180664 Q-24.692383 0.688477, -24.311523 1.44043 Q-24.116211 1.870118, -23.71582 2.319336 Q-23.344727 2.709961, -23.168945 2.807618 Q-22.944336 2.983399, -22.651367 3.120118 Q-22.446288 3.217774, -22.250977 3.266602 Z M-23.999023 0.288086 Q-23.999023 -0.83496, -23.198242 -1.77246 Q-22.836914 -2.15332, -22.680664 -2.24121 Q-22.368164 -2.446289, -21.938477 -2.524414 Q-21.040039 -1.645507, -21.040039 -0.415039 Q-21.040039 -0.405273, -21.040039 -0.395507 Q-21.040039 1.313477, -22.651367 2.319336 Q-22.875977 2.44629, -23.022461 2.495118 Q-23.549805 2.153321, -23.852538 1.293946 Q-23.999023 0.805665, -23.999023 0.288086 Z" />
<path d="M-17.456055 3.22754 Q-17.260742 3.178711, -16.958008 2.91504 Q-16.674805 2.592774, -16.674805 2.241211 Q-16.674805 0.72754, -16.674805 -2.30957 Q-16.342773 -2.30957, -15.83496 -2.426757 Q-15.59082 -2.504882, -15.541993 -2.573242 L-15.541993 -2.583007 Q-15.67871 -2.768554, -16.108398 -3.33496 Q-17.036133 -3.02246, -17.807617 -3.02246 Q-18.706055 -3.061523, -18.852539 -3.110351 Q-18.87207 -3.110351, -18.911133 -3.129882 Q-18.911133 -3.120117, -18.911133 -3.120117 Q-18.852539 -2.983398, -18.676758 -2.583007 Q-18.149414 -2.358398, -17.69043 -2.319335 Q-17.69043 -1.000976, -17.69043 1.635743 Q-17.69043 1.655274, -17.69043 1.704102 Q-17.69043 1.967774, -17.827148 2.153321 Q-18.081055 1.889649, -18.579102 1.362305 Q-18.706055 1.528321, -19.09668 2.006836 Q-18.686523 2.309571, -17.46582 3.22754 L-17.456055 3.22754 Z" />
<path d="M-12.69043 3.276368 Q-12.22168 3.012696, -10.805663 2.211915 Q-10.737305 1.791993, -10.737305 1.479493 Q-10.737305 0.57129, -11.079102 0.219727 Q-11.235352 0.024415, -11.567383 -0.258789 Q-12.163085 -0.708007, -12.53418 -0.90332 Q-12.797852 -1.040039, -12.973633 -1.176757 Q-13.188477 -1.30371, -13.764648 -1.889648 Q-14.047852 -2.202148, -14.057618 -2.280273 Q-14.067383 -2.319335, -14.09668 -2.39746 L-14.09668 -2.39746 Q-13.217773 -1.977539, -12.358398 -1.977539 Q-11.821288 -1.977539, -10.952148 -2.231445 Q-10.668945 -2.329101, -10.639648 -2.387695 L-10.639648 -2.387695 Q-11.293945 -3.266601, -11.323243 -3.305664 Q-12.202148 -2.827148, -13.00293 -2.827148 Q-13.852538 -2.827148, -14.633788 -3.325195 Q-14.711913 -3.09082, -14.711913 -2.817382 Q-14.711913 -2.77832, -14.711913 -2.700195 Q-14.711913 -1.870117, -14.077148 -1.137695 Q-13.40332 -0.483398, -13.032227 -0.20996 Q-12.55371 0.141602, -12.338868 0.336915 Q-11.831055 0.893555, -11.831055 1.391602 Q-11.831055 1.401368, -11.831055 1.420899 Q-11.831055 1.772461, -12.094727 2.114258 Q-12.290038 2.329102, -12.446288 2.37793 Q-12.495118 2.407227, -12.563477 2.416993 Q-12.836913 2.22168, -14.038085 1.430665 L-14.047852 1.430665 Q-14.194335 1.616211, -14.633788 2.192383 Q-14.614258 2.22168, -14.018555 2.53418 Q-13.999023 2.563477, -12.69043 3.276368 Z" />
<path d="M-7.53418 3.295899 Q-7.124023 3.051758, -5.874023 2.338868 Q-5.825195 2.016602, -5.825195 1.743165 Q-5.825195 0.952149, -6.264648 0.668946 Q-6.616211 0.405274, -6.870117 0.278321 Q-6.938477 0.249024, -7.075195 0.180665 L-7.075195 0.180665 Q-6.831055 0.180665, -6.37207 -0.014648 Q-6.137695 -0.141601, -5.991211 -0.297851 Q-5.581055 -0.74707, -5.581055 -1.30371 Q-5.581055 -1.84082, -5.942383 -2.319335 Q-6.245117 -2.661132, -6.420898 -2.749023 Q-6.645508 -2.905273, -6.90918 -3.02246 Q-7.338867 -3.168945, -8.041992 -3.305664 Q-8.62793 -2.875976, -9.80957 -2.036132 Q-9.604493 -1.860351, -9.018555 -1.342773 Q-9.008789 -1.342773, -8.999023 -1.342773 Q-8.598633 -1.674804, -7.37793 -2.661132 Q-6.918945 -2.504882, -6.733398 -2.163085 Q-6.606445 -1.92871, -6.606445 -1.61621 Q-6.606445 -0.83496, -7.163086 -0.317382 Q-7.475586 -0.05371, -7.895508 -0.05371 Q-8.139648 -0.043945, -8.647461 -0.014648 Q-8.657227 -0.014648, -8.657227 -0.014648 Q-8.637695 0.336915, -8.618164 0.336915 Q-8.608398 0.336915, -8.588867 0.336915 Q-7.641602 0.336915, -7.231445 0.639649 Q-6.762695 1.186524, -6.762695 1.66504 Q-6.762695 1.674805, -6.762695 1.684571 Q-6.762695 2.055665, -7.026367 2.329102 Q-7.22168 2.495118, -7.504883 2.495118 Q-7.524414 2.495118, -7.553711 2.495118 Q-7.915039 2.495118, -8.823242 1.420899 L-8.833008 1.420899 Q-8.999023 1.616211, -9.49707 2.202149 L-9.49707 2.211915 Q-8.999023 2.485352, -7.53418 3.295899 Z" />
<path d="M-1.362305 3.305665 Q-1.352539 3.305665, -1.313477 3.305665 Q-0.952148 3.305665, -0.649414 3.139649 Q-0.649414 3.129883, -0.649414 3.120118 Q-0.854492 2.963868, -1.450195 2.475586 Q-1.782227 2.53418, -1.987305 2.53418 Q-3.110352 2.53418, -3.569336 1.499024 Q-3.78418 0.952149, -3.78418 0.180665 L-3.78418 0.180665 Q-3.78418 -0.073242, -3.774414 -0.200195 Q-3.305664 -0.200195, -2.368164 -0.200195 Q-2.368164 0.209961, -2.368164 1.44043 Q-2.368164 1.459961, -1.499023 1.889649 L-1.499023 1.889649 Q-1.499023 1.811524, -1.499023 1.606446 Q-1.499023 1.157227, -1.499023 -0.20996 L-1.499023 -0.20996 Q-1.303711 -0.200195, -0.717773 -0.200195 Q-0.698242 -0.200195, -0.649414 -0.200195 L-0.649414 -0.200195 Q-0.649414 -0.43457, -0.649414 -1.14746 L-0.649414 -1.14746 L-0.649414 -1.14746 Q-0.698242 -1.14746, -0.834961 -1.14746 Q-1.000977 -1.14746, -1.499023 -1.14746 Q-1.508789 -1.21582, -1.518555 -1.274414 Q-1.577148 -1.61621, -1.655273 -1.850585 Q-1.90918 -2.592773, -2.563477 -2.983398 Q-2.797852 -3.129882, -3.061523 -3.217773 Q-3.540039 -3.354492, -3.862305 -3.354492 L-3.862305 -3.344726 Q-2.915039 -2.719726, -2.524414 -1.674804 Q-2.407227 -1.30371, -2.407227 -1.14746 L-2.416992 -1.14746 Q-2.495117 -1.14746, -2.749023 -1.14746 Q-2.797852 -1.14746, -2.93457 -1.14746 Q-3.24707 -1.14746, -4.194336 -1.14746 Q-4.311523 -1.14746, -4.643555 -1.14746 L-4.643555 -1.14746 Q-4.643555 0.766602, -3.930664 1.713868 Q-3.198242 2.75879, -2.084961 3.178711 Q-1.68457 3.305665, -1.362305 3.305665 Z" />
<path d="M1.899414 3.295899 Q2.495117 3.295899, 4.282227 3.295899 L4.282227 3.286133 Q4.243164 3.15918, 3.969727 2.338868 Q3.950195 2.338868, 3.901367 2.338868 Q3.55957 2.338868, 2.524414 2.338868 Q2.358398 2.338868, 1.860352 2.338868 Q1.84082 2.338868, 1.782227 2.338868 Q1.782227 1.948243, 1.782227 0.786133 Q2.182617 1.079102, 2.641602 1.079102 Q2.661133 1.079102, 2.700195 1.079102 Q3.354492 1.079102, 3.901367 0.561524 Q4.389648 0.053711, 4.389648 -0.74707 Q4.389648 -0.776367, 4.389648 -0.825195 Q4.389648 -2.231445, 2.93457 -3.02246 Q2.504883 -3.295898, 1.811523 -3.295898 Q1.801758 -3.295898, 1.782227 -3.295898 Q1.713867 -3.286132, 1.625977 -3.217773 Q0.268555 -2.319335, 0.249023 -2.290039 Q0.463867 -2.036132, 0.883789 -1.52832 L0.883789 -1.52832 Q1.352539 -1.811523, 2.758789 -2.670898 Q2.963867 -2.641601, 3.129883 -2.543945 Q3.305664 -2.436523, 3.481445 -2.065429 Q3.588867 -1.733398, 3.588867 -1.323242 Q3.588867 -1.30371, 3.588867 -1.274414 Q3.588867 -0.600585, 3.071289 -0.12207 Q2.641602 0.19043, 2.172852 0.19043 Q1.518555 0.19043, 0.942383 -0.356445 Q0.942383 -0.346679, 0.932617 -0.346679 Q0.932617 0.317383, 0.932617 2.329102 Q1.176758 2.573243, 1.899414 3.295899 Z" />
<path d="M7.592773 3.334961 Q7.954102 3.168946, 9.067383 2.651368 L9.067383 2.641602 Q8.891602 2.436523, 8.374023 1.821289 L8.374023 1.821289 Q8.061523 1.997071, 7.124023 2.524415 Q6.674805 2.250977, 6.469727 1.616211 Q6.293945 1.030274, 6.293945 0.385743 Q6.293945 0.229493, 6.293945 -0.063476 Q6.293945 -0.083007, 6.303711 -0.12207 Q7.983398 1.020507, 8.041992 1.079102 Q8.256836 1.079102, 8.608398 0.922852 Q9.077148 0.678711, 9.34082 0.024415 Q9.448242 -0.307617, 9.448242 -0.620117 Q9.448242 -1.508789, 8.569336 -2.329101 Q7.46582 -3.208007, 7.124023 -3.24707 Q6.938477 -3.198242, 6.459961 -2.758789 Q6.069336 -2.368164, 5.90332 -2.114257 Q5.288086 -1.21582, 5.288086 -0.288085 Q5.288086 -0.268554, 5.288086 -0.249023 Q5.288086 1.313477, 6.889648 2.84668 Q7.299805 3.188477, 7.514648 3.305665 Q7.543945 3.31543, 7.592773 3.334961 Z M7.456055 0.336915 Q7.172852 0.141602, 6.342773 -0.43457 L6.342773 -0.43457 Q6.430664 -0.844726, 6.557617 -1.137695 Q6.694336 -1.489257, 7.006836 -1.811523 Q7.30957 -2.114257, 7.602539 -2.231445 Q8.00293 -2.377929, 8.110352 -2.377929 L8.110352 -2.387695 Q8.696289 -2.045898, 8.696289 -1.313476 Q8.696289 -0.874023, 8.491211 -0.43457 Q8.266602 -0.092773, 8.012695 0.092774 Q7.670898 0.327149, 7.456055 0.336915 Z" />
<path d="M14.370117 3.325196 L14.379883 3.305664 Q14.379883 3.227539, 14.379883 2.993164 Q13.959961 2.553711, 13.78418 2.241211 Q13.295898 1.538086, 12.924805 0.698243 Q12.260742 -0.805664, 12.260742 -2.124023 Q12.260742 -2.46582, 12.30957 -2.866211 Q11.860352 -3.012695, 10.97168 -3.325195 Q10.97168 -3.31543, 10.97168 -3.305664 Q10.97168 -2.426757, 11.333008 -1.108398 Q11.958008 0.991211, 13.481445 2.387696 Q12.924805 2.387696, 11.811523 2.387696 Q10.97168 2.387696, 10.639648 1.713868 Q10.610352 1.645507, 10.532227 1.508789 Q10.454102 1.508789, 10.239258 1.508789 L10.239258 1.508789 Q10.59082 2.319336, 11.049805 3.325196 Q12.15332 3.325196, 14.370117 3.325196 Z" />
<path d="M17.856445 3.305664 Q17.875977 3.305664, 17.93457 3.305664 Q18.422852 3.305664, 18.930664 2.924804 Q19.291992 2.641601, 19.291992 2.280273 L19.291992 2.270507 Q19.291992 1.743164, 18.40332 1.079101 Q18.256836 0.961914, 17.954102 0.727539 Q18.94043 0.385742, 19.301758 0.083007 Q19.65332 -0.278321, 19.65332 -0.717774 Q19.65332 -1.430665, 18.666992 -2.016602 L18.657227 -2.016602 L18.657227 -2.016602 Q18.881836 -1.606446, 18.881836 -1.274415 Q18.881836 -0.610352, 18.041992 -0.366211 Q17.358398 -0.131836, 16.889648 0.063476 Q16.616211 -0.083008, 16.499023 -0.180665 Q15.854492 -0.708008, 15.854492 -1.176758 Q15.854492 -1.674805, 16.606445 -2.114258 Q17.114258 -2.387696, 17.700195 -2.387696 Q17.709961 -2.387696, 17.739258 -2.387696 Q18.15918 -2.387696, 18.481445 -2.250977 Q18.071289 -3.247071, 17.075195 -3.247071 Q16.225586 -3.247071, 15.512695 -2.583008 Q15.073242 -2.13379, 15.073242 -1.694336 Q15.073242 -1.66504, 15.073242 -1.606446 Q15.073242 -1.020508, 15.795898 -0.327149 Q16.21582 0.024414, 16.52832 0.200195 Q16.567383 0.219726, 16.567383 0.229492 Q15.551758 0.756835, 15.551758 1.430664 Q15.551758 2.08496, 16.37207 2.749023 Q17.182617 3.305664, 17.856445 3.305664 Z M16.479492 1.860351 Q16.479492 1.196289, 17.37793 0.883789 Q17.446289 0.874023, 17.583008 0.83496 Q17.77832 0.922851, 18.100586 1.235351 Q18.47168 1.655273, 18.47168 1.977539 Q18.47168 1.99707, 18.47168 2.045898 Q18.47168 2.446289, 18.012695 2.719726 Q17.739258 2.86621, 17.46582 2.86621 Q16.801758 2.86621, 16.52832 2.182617 Q16.479492 2.016601, 16.479492 1.860351 Z" />
<path d="M22.592773 3.354492 Q23.15918 3.198242, 23.686523 2.758789 Q24.692383 1.870117, 24.692383 0.336914 Q24.692383 -1.50879, 23.208008 -2.788086 Q22.69043 -3.188477, 22.475586 -3.266602 Q21.889648 -3.022461, 20.737305 -2.543946 L20.737305 -2.524415 Q20.90332 -2.319336, 21.411133 -1.694336 Q21.420898 -1.694336, 21.420898 -1.694336 Q21.821289 -1.879883, 23.012695 -2.416993 L23.012695 -2.416993 Q23.745117 -1.28418, 23.745117 -0.219727 Q23.745117 0.737304, 23.237305 1.499023 Q22.93457 1.899414, 22.583008 2.133789 Q22.348633 2.290039, 22.075195 2.407226 Q22.026367 2.416992, 21.948242 2.446289 Q21.274414 1.918945, 21.274414 1.118164 Q21.274414 0.180664, 22.06543 -0.03418 Q22.319336 -0.10254, 22.612305 -0.10254 Q22.641602 -0.10254, 22.700195 -0.10254 Q22.797852 -0.10254, 23.09082 -0.092774 Q23.071289 -0.25879, 22.895508 -0.532227 Q22.573242 -0.952149, 22.094727 -0.952149 Q21.59668 -0.952149, 21.069336 -0.483399 Q20.561523 0.024414, 20.561523 0.727539 Q20.561523 1.977539, 22.37793 3.217773 Q22.446289 3.256835, 22.592773 3.354492 Z" />
		</g>
	</svg>