<svg xmlns="http://www.w3.org/2000/svg" viewBox="-25.915527 -3.48877 51.831054 6.97754">
		<g transform="scale(1,-1)">
			<path fill-rule="evenodd" d="M-23.557129 3.293457 Q-24.064941 3.293457, -24.538574 3.039551 Q-25.915527 2.307129, -25.915527 -0.192871 L-25.915527 -0.29541 Q-25.915527 -1.950684, -25.344238 -2.700195 Q-24.772949 -3.449707, -23.781738 -3.449707 L-23.684082 -3.449707 Q-23.14209 -3.449707, -22.619629 -3.181152 Q-21.745605 -2.736816, -21.433105 -1.433105 Q-21.276855 -0.778809, -21.271973 -0.080566 L-21.271973 0.222168 Q-21.271973 1.61377, -21.774902 2.390137 Q-22.36084 3.293457, -23.459473 3.293457 L-23.557129 3.293457 Z M-22.331543 0.26123 L-22.331543 -0.109863 Q-22.331543 -1.281738, -22.712402 -2.01416 Q-22.878418 -2.331543, -23.14209 -2.507324 Q-23.405762 -2.683105, -23.684082 -2.683105 L-23.811035 -2.683105 Q-24.064941 -2.683105, -24.279785 -2.55127 Q-24.987793 -2.106934, -24.987793 -0.397949 L-24.987793 -0.178223 Q-24.987793 1.052246, -24.631348 1.791992 Q-24.274902 2.531738, -23.518066 2.531738 Q-22.331543 2.531738, -22.331543 0.26123 Z" />
<path fill-rule="evenodd" d="M-19.523926 2.634277 Q-19.968262 2.331543, -19.968262 2.06543 Q-19.968262 1.799316, -19.570313 1.748047 Q-19.172363 1.696777, -19.099121 1.57959 Q-18.942871 1.340332, -18.942871 0.324707 Q-18.942871 0.090332, -18.942871 -0.144043 L-18.947754 -0.422363 L-18.95752 -0.60791 Q-18.95752 -1.140137, -19.157715 -1.740723 Q-19.35791 -2.341309, -19.35791 -2.512207 Q-19.35791 -2.897949, -19.128418 -3.115234 Q-18.898926 -3.33252, -18.527832 -3.33252 Q-18.156738 -3.33252, -17.966309 -3.161621 Q-17.658691 -2.883301, -17.658691 -2.480469 Q-17.658691 -2.077637, -17.788086 -1.745605 Q-17.91748 -1.413574, -17.932129 -1.293945 Q-17.946777 -1.174316, -17.946777 -0.285645 L-17.922363 0.583496 L-17.922363 2.839355 Q-17.990723 3.195801, -18.293457 3.195801 Q-18.693848 3.195801, -19.523926 2.634277 Z" />
<path fill-rule="evenodd" d="M-12.619629 -2.44873 L-12.883301 -2.44873 L-13.02002 -2.453613 L-13.586426 -2.463379 Q-14.733887 -2.463379, -14.733887 -2.282715 Q-14.733887 -1.989746, -13.828125 -1.147461 Q-12.922363 -0.305176, -12.634277 0.080566 Q-12.116699 0.769043, -12.116699 1.560059 Q-12.116699 1.940918, -12.258301 2.280273 Q-12.399902 2.619629, -12.648926 2.839355 Q-13.151855 3.283691, -13.945313 3.283691 Q-14.73877 3.283691, -15.334473 2.902832 Q-15.646973 2.702637, -15.808105 2.473145 Q-15.969238 2.243652, -15.969238 2.116699 Q-15.969238 1.721191, -15.734863 1.721191 Q-15.57373 1.721191, -15.05127 2.070313 Q-14.528809 2.419434, -14.09668 2.419434 Q-13.664551 2.419434, -13.398438 2.167969 Q-13.132324 1.916504, -13.132324 1.45752 Q-13.132324 0.998535, -13.410645 0.581055 Q-13.688965 0.163574, -14.470215 -0.583496 Q-15.251465 -1.330566, -15.554199 -1.711426 Q-16.086426 -2.385254, -16.086426 -2.839355 L-16.086426 -2.966309 Q-16.086426 -3.146973, -15.9375 -3.227539 Q-15.788574 -3.308105, -15.45166 -3.308105 L-14.86084 -3.308105 L-14.562988 -3.303223 Q-12.824707 -3.303223, -12.409668 -3.234863 Q-11.994629 -3.166504, -11.994629 -2.873535 Q-11.994629 -2.44873, -12.619629 -2.44873 Z" />
<path fill-rule="evenodd" d="M-9.431152 0.187988 Q-9.431152 -0.061035, -9.245605 -0.183105 Q-9.162598 -0.236816, -8.952637 -0.283203 Q-8.742676 -0.32959, -8.510742 -0.400391 Q-8.278809 -0.471191, -8.044434 -0.681152 Q-7.702637 -0.98877, -7.702637 -1.477051 Q-7.702637 -1.965332, -8.046875 -2.246094 Q-8.391113 -2.526855, -8.913574 -2.526855 Q-9.206543 -2.526855, -9.650879 -2.397461 Q-10.095215 -2.268066, -10.241699 -2.268066 Q-10.681152 -2.268066, -10.681152 -2.536621 L-10.681152 -2.634277 Q-10.681152 -2.932129, -10.175781 -3.205566 Q-9.67041 -3.479004, -9.138184 -3.479004 L-8.986816 -3.479004 Q-7.98584 -3.479004, -7.302246 -2.902832 Q-6.618652 -2.331543, -6.618652 -1.51123 L-6.618652 -1.35498 Q-6.618652 -0.910645, -6.821289 -0.554199 Q-7.023926 -0.197754, -7.331543 0.041504 Q-7.63916 0.280762, -7.63916 0.388184 Q-7.63916 0.422363, -7.438965 0.754395 Q-7.04834 1.403809, -7.04834 2.067871 Q-7.04834 2.731934, -7.497559 3.063965 Q-7.814941 3.29834, -8.464355 3.29834 L-8.620605 3.29834 Q-9.216309 3.29834, -9.82666 3.034668 Q-10.437012 2.770996, -10.437012 2.475586 Q-10.437012 2.180176, -10.197754 2.180176 Q-10.041504 2.180176, -9.562988 2.307129 Q-9.084473 2.434082, -8.92334 2.434082 Q-8.430176 2.434082, -8.232422 2.255859 Q-8.034668 2.077637, -8.034668 1.743164 Q-8.034668 1.408691, -8.312988 1.083984 Q-8.591309 0.759277, -9.01123 0.551758 Q-9.431152 0.344238, -9.431152 0.187988 Z" />
<path fill-rule="evenodd" d="M-0.900879 -1.262207 Q-0.900879 -1.052246, -1.125488 -0.939941 Q-1.467285 -0.769043, -1.501465 -0.720215 Q-1.652832 -0.495605, -1.652832 -0.041504 L-1.66748 0.456543 L-1.66748 0.666504 L-1.672363 0.871582 L-1.672363 1.38916 Q-1.672363 1.594238, -1.66748 1.706543 L-1.662598 1.813965 L-1.662598 2.023926 L-1.657715 2.126465 Q-1.657715 2.893066, -1.696777 3.024902 Q-1.77002 3.269043, -2.077637 3.269043 L-2.17041 3.269043 Q-2.424316 3.269043, -2.626953 3.120117 Q-2.82959 2.971191, -3.215332 2.443848 Q-4.528809 0.656738, -5.231934 -0.412598 Q-5.568848 -0.925293, -5.568848 -1.223145 Q-5.568848 -1.520996, -5.366211 -1.608887 Q-5.163574 -1.696777, -4.865723 -1.696777 Q-4.567871 -1.696777, -4.465332 -1.70166 L-4.362793 -1.706543 Q-3.205566 -1.706543, -2.927246 -1.936035 Q-2.756348 -2.077637, -2.717285 -2.590332 Q-2.678223 -3.103027, -2.595215 -3.271484 Q-2.512207 -3.439941, -2.20459 -3.439941 Q-1.896973 -3.439941, -1.804199 -3.225098 Q-1.711426 -3.010254, -1.687012 -2.526855 Q-1.662598 -2.043457, -1.633301 -1.97998 Q-1.574707 -1.843262, -1.325684 -1.765137 Q-0.900879 -1.628418, -0.900879 -1.262207 Z M-4.450684 -0.964355 Q-4.641113 -0.964355, -4.641113 -0.925293 L-4.641113 -0.905762 Q-4.641113 -0.725098, -3.273926 1.140137 Q-3.146973 1.311035, -3.093262 1.394043 L-2.946777 1.61377 Q-2.63916 2.033691, -2.626953 2.033691 Q-2.614746 2.033691, -2.614746 1.906738 L-2.614746 1.867676 L-2.67334 0.646973 Q-2.67334 0.603027, -2.67334 0.559082 L-2.70752 -0.056152 L-2.70752 -0.148926 L-2.722168 -0.412598 L-2.736816 -0.539551 Q-2.736816 -0.930176, -3.02002 -0.930176 Q-3.059082 -0.930176, -3.098145 -0.935059 L-4.16748 -0.959473 L-4.206543 -0.964355 L-4.450684 -0.964355 Z" />
<path fill-rule="evenodd" d="M3.806152 3.278809 L3.493652 3.278809 L3.342285 3.273926 L3.024902 3.269043 L2.23877 3.254395 Q1.472168 3.254395, 1.171875 3.195801 Q0.871582 3.137207, 0.749512 2.946777 Q0.456543 2.492676, 0.456543 0.895996 Q0.456543 0.368652, 0.637207 0.163574 Q0.817871 -0.041504, 1.306152 -0.041504 Q2.414551 -0.041504, 2.814941 -0.305176 Q3.317871 -0.637207, 3.317871 -1.25 Q3.317871 -1.862793, 2.988281 -2.219238 Q2.658691 -2.575684, 2.043457 -2.575684 Q1.638184 -2.575684, 1.171875 -2.402344 Q0.705566 -2.229004, 0.578613 -2.229004 Q0.45166 -2.229004, 0.336914 -2.319336 Q0.222168 -2.409668, 0.222168 -2.556152 Q0.222168 -2.966309, 0.910645 -3.278809 Q1.35498 -3.483887, 1.931152 -3.483887 Q3.063965 -3.483887, 3.73291 -2.844238 Q4.353027 -2.253418, 4.353027 -1.306152 L4.353027 -1.14502 Q4.353027 -0.666504, 4.133301 -0.241699 Q3.591309 0.808105, 1.960449 0.808105 L1.682129 0.79834 Q1.35498 0.79834, 1.35498 1.130371 Q1.35498 2.023926, 1.696777 2.277832 Q1.89209 2.424316, 2.741699 2.451172 Q3.591309 2.478027, 3.879395 2.590332 Q4.16748 2.702637, 4.16748 3.044434 Q4.16748 3.278809, 3.806152 3.278809 Z" />
<path fill-rule="evenodd" d="M9.929199 -1.242676 Q9.929199 -0.437012, 9.494629 0.056152 Q9.240723 0.344238, 8.862305 0.488281 Q8.483887 0.632324, 8.164063 0.632324 Q7.844238 0.632324, 7.443848 0.57373 Q7.043457 0.515137, 7.004395 0.515137 Q6.726074 0.515137, 6.726074 0.812988 Q6.726074 1.359863, 7.297363 1.828613 Q7.67334 2.13623, 8.271484 2.260742 Q8.869629 2.385254, 8.981934 2.453613 Q9.187012 2.575684, 9.187012 2.785645 Q9.187012 2.995605, 8.947754 3.129883 Q8.708496 3.26416, 8.222656 3.26416 Q7.736816 3.26416, 7.229004 3.010254 Q6.081543 2.434082, 5.705566 1.022949 Q5.515137 0.305176, 5.515137 -0.48584 L5.510254 -0.612793 L5.510254 -0.739746 Q5.510254 -0.744629, 5.510254 -0.754395 Q5.510254 -2.629395, 6.696777 -3.22998 Q7.097168 -3.435059, 7.595215 -3.435059 L7.722168 -3.435059 Q8.161621 -3.435059, 8.571777 -3.283691 Q9.416504 -2.971191, 9.753418 -2.180176 Q9.929199 -1.765137, 9.929199 -1.364746 L9.929199 -1.242676 Z M7.683105 0.065918 Q7.727051 0.065918, 7.814941 0.075684 L7.946777 0.075684 Q8.42041 0.075684, 8.710938 -0.244141 Q9.001465 -0.563965, 9.001465 -1.066895 L9.001465 -1.30127 Q9.001465 -1.887207, 8.64502 -2.277832 Q8.288574 -2.668457, 7.775879 -2.668457 L7.648926 -2.668457 Q7.189941 -2.668457, 6.894531 -2.282715 Q6.599121 -1.896973, 6.599121 -1.286621 L6.599121 -1.242676 Q6.599121 -0.637207, 6.853027 -0.339355 Q7.194824 0.065918, 7.683105 0.065918 Z" />
<path fill-rule="evenodd" d="M10.959473 2.79541 Q10.959473 2.370605, 11.447754 2.370605 L12.595215 2.414551 Q13.259277 2.414551, 13.527832 2.336426 Q13.796387 2.258301, 13.796387 2.011719 Q13.796387 1.765137, 13.369141 0.949707 Q12.941895 0.134277, 12.712402 -0.510254 Q11.916504 -2.736816, 11.916504 -3.10791 Q11.916504 -3.322754, 12.033691 -3.405762 Q12.150879 -3.48877, 12.429199 -3.48877 Q12.70752 -3.48877, 12.849121 -3.14209 Q15.012207 2.072754, 15.012207 2.712402 Q15.012207 3.044434, 14.787598 3.132324 Q14.465332 3.259277, 13.757324 3.259277 L13.068848 3.259277 Q11.740723 3.259277, 11.276855 3.151855 Q10.959473 3.078613, 10.959473 2.79541 Z" />
<path fill-rule="evenodd" d="M19.475098 0.319824 Q19.475098 0.354004, 19.714355 0.646973 Q20.217285 1.271973, 20.217285 1.931152 Q20.217285 2.595215, 19.726563 3.041992 Q19.23584 3.48877, 18.405762 3.48877 L18.293457 3.48877 Q17.390137 3.48877, 16.835938 3.007813 Q16.281738 2.526855, 16.281738 1.821289 Q16.281738 1.115723, 16.740723 0.539551 Q16.945801 0.280762, 16.950684 0.227051 Q16.950684 0.222168, 16.662598 -0.065918 Q15.998535 -0.72998, 15.998535 -1.525879 L15.998535 -1.638184 Q15.998535 -2.44873, 16.564941 -2.954102 Q17.131348 -3.459473, 18.054199 -3.459473 L18.166504 -3.459473 Q18.669434 -3.459473, 19.11377 -3.288574 Q19.909668 -2.98584, 20.212402 -2.302246 Q20.36377 -1.960449, 20.36377 -1.604004 L20.36377 -1.38916 Q20.36377 -0.622559, 19.729004 0.026855 Q19.475098 0.290527, 19.475098 0.319824 Z M19.313965 1.789551 Q19.313965 1.320801, 18.986816 0.993652 Q18.659668 0.666504, 18.293457 0.666504 L18.259277 0.661621 Q17.805176 0.661621, 17.502441 0.998535 Q17.199707 1.335449, 17.199707 1.73584 L17.199707 1.843262 Q17.199707 2.233887, 17.497559 2.502441 Q17.79541 2.770996, 18.234863 2.770996 L18.342285 2.770996 Q18.791504 2.770996, 19.052734 2.509766 Q19.313965 2.248535, 19.313965 1.896973 L19.313965 1.789551 Z M18.044434 -2.683105 Q17.531738 -2.683105, 17.229004 -2.351074 Q16.92627 -2.019043, 16.92627 -1.555176 L16.92627 -1.467285 Q16.92627 -0.930176, 17.277832 -0.541992 Q17.629395 -0.153809, 18.098145 -0.153809 L18.181152 -0.153809 Q18.674316 -0.153809, 19.050293 -0.529785 Q19.42627 -0.905762, 19.42627 -1.418457 L19.431152 -1.462402 Q19.431152 -1.994629, 19.116211 -2.338867 Q18.80127 -2.683105, 18.220215 -2.683105 L18.044434 -2.683105 Z" />
<path fill-rule="evenodd" d="M24.489746 -0.64209 Q24.733887 -0.64209, 24.733887 -0.88623 Q24.733887 -1.130371, 24.621582 -1.359863 Q24.191895 -2.224121, 23.015137 -2.438965 Q22.839355 -2.468262, 22.824707 -2.478027 Q22.258301 -2.600098, 22.258301 -2.91748 Q22.258301 -3.112793, 22.443848 -3.254395 Q22.629395 -3.395996, 22.990723 -3.395996 L23.093262 -3.395996 Q23.649902 -3.395996, 24.250488 -3.088379 Q25.915527 -2.224121, 25.915527 0.52002 L25.915527 0.646973 Q25.915527 1.384277, 25.788574 1.882324 Q25.559082 2.770996, 24.772949 3.156738 Q24.362793 3.361816, 23.908691 3.361816 L23.781738 3.361816 Q22.746582 3.361816, 22.148438 2.744141 Q21.550293 2.126465, 21.550293 1.188965 L21.550293 1.066895 Q21.550293 0.285645, 22.028809 -0.222168 Q22.243652 -0.45166, 22.617188 -0.60791 Q22.990723 -0.76416, 23.344727 -0.76416 Q23.69873 -0.76416, 24.02832 -0.703125 Q24.35791 -0.64209, 24.489746 -0.64209 Z M23.820801 2.60498 Q24.240723 2.60498, 24.567871 2.248535 Q24.89502 1.89209, 24.89502 1.452637 Q24.89502 1.364746, 24.909668 1.23291 L24.909668 1.101074 Q24.909668 0.510254, 24.560547 0.19043 Q24.211426 -0.129395, 23.635254 -0.129395 L23.591309 -0.134277 L23.547363 -0.134277 Q23.07373 -0.134277, 22.763672 0.175781 Q22.453613 0.48584, 22.453613 1.091309 L22.453613 1.135254 Q22.453613 1.755371, 22.780762 2.180176 Q23.10791 2.60498, 23.64502 2.60498 L23.820801 2.60498 Z" />
		</g>
	</svg>