<svg xmlns="http://www.w3.org/2000/svg" viewBox="-23.01 -3.44 46.02 6.88">
		<g transform="scale(1,-1)">
			<path fill-rule="evenodd" d="M-22.9 1.92 Q-23.01 1.71, -23.01 0.61 L-23.01 -0.61 Q-23.01 -1.66, -22.875 -1.97 Q-22.74 -2.28, -22.07 -2.86 Q-21.4 -3.44, -21.06 -3.44 Q-20.72 -3.44, -20.06 -2.86 Q-19.4 -2.28, -19.22 -1.92 Q-19.11 -1.69, -19.11 -0.61 L-19.11 0.61 Q-19.11 1.66, -19.245 1.97 Q-19.38 2.28, -20.05 2.86 Q-20.72 3.44, -21.06 3.44 Q-21.4 3.44, -22.07 2.86 Q-22.74 2.28, -22.9 1.92 Z" />
<path fill-rule="evenodd" d="M-20.45 0.61 L-20.45 -0.61 Q-20.45 -1.44, -20.505 -1.64 Q-20.56 -1.84, -20.745 -1.99 Q-20.93 -2.14, -21.055 -2.14 Q-21.18 -2.14, -21.365 -1.99 Q-21.55 -1.84, -21.61 -1.685 Q-21.67 -1.53, -21.67 -0.61 L-21.67 0.61 Q-21.67 1.58, -21.6 1.71 Q-21.53 1.84, -21.355 1.99 Q-21.18 2.14, -21.06 2.14 Q-20.94 2.14, -20.765 1.99 Q-20.59 1.84, -20.52 1.715 Q-20.45 1.59, -20.45 0.61 Z" />
<path fill-rule="evenodd" d="M-17.86 2.22 L-16.51 2.22 L-16.51 -2.09 Q-17.06 -1.57, -17.33 -1.05 L-18.37 -1.65 Q-18.07 -2.16, -17.4 -2.8 Q-16.73 -3.44, -16.585 -3.44 Q-16.44 -3.44, -15.86 -3.095 Q-15.28 -2.75, -15.23 -2.64 L-15.23 2.22 L-14.3 2.22 L-14.3 3.32 L-17.86 3.32 L-17.86 2.22 Z" />
<path fill-rule="evenodd" d="M-11.61 -3.44 Q-11.28 -3.44, -10.645 -2.875 Q-10.01 -2.31, -9.77 -1.93 Q-9.66 -1.75, -9.66 -1.115 Q-9.66 -0.48, -9.79 -0.275 Q-9.92 -0.07, -10.89 0.535 Q-11.86 1.14, -12.1 1.45 Q-12.18 1.56, -12.18 1.86 L-12.18 2.22 L-9.7 2.22 L-9.7 3.32 L-13.56 3.32 L-13.56 1.96 Q-13.56 1.37, -13.42 1.09 Q-13.28 0.81, -12.81 0.425 Q-12.34 0.04, -11.78 -0.325 Q-11.22 -0.69, -11.11 -0.78 Q-11 -0.87, -11 -1.11 Q-11 -1.35, -11.065 -1.555 Q-11.13 -1.76, -11.31 -1.955 Q-11.49 -2.15, -11.635 -2.15 Q-11.78 -2.15, -12.1 -1.775 Q-12.42 -1.4, -12.52 -0.94 L-13.6 -1.58 Q-13.46 -2.22, -12.805 -2.83 Q-12.15 -3.44, -11.61 -3.44 Z" />
<path fill-rule="evenodd" d="M-6.44 1.83 Q-6.36 1.67, -6.36 1.27 Q-6.36 0.87, -6.49 0.7 Q-6.96 0.17, -7.51 0.08 L-7.51 -0.59 Q-6.96 -0.79, -6.61 -1.06 Q-6.46 -1.17, -6.46 -1.6 Q-6.46 -1.79, -6.66 -1.965 Q-6.86 -2.14, -6.99 -2.14 Q-7.12 -2.14, -7.405 -1.77 Q-7.69 -1.4, -7.78 -0.95 L-8.86 -1.57 Q-8.72 -2.21, -8.1 -2.825 Q-7.48 -3.44, -6.97 -3.44 Q-6.64 -3.44, -5.96 -2.915 Q-5.28 -2.39, -5.19 -2.12 Q-5.12 -1.93, -5.12 -1.365 Q-5.12 -0.8, -5.23 -0.66 Q-5.42 -0.43, -5.72 -0.27 Q-5.25 0.1, -5.135 0.285 Q-5.02 0.47, -5.02 1.185 Q-5.02 1.9, -5.15 2.155 Q-5.28 2.41, -5.965 2.925 Q-6.65 3.44, -6.97 3.44 Q-7.51 3.44, -8.165 2.85 Q-8.82 2.26, -8.96 1.63 L-7.86 0.88 Q-7.76 1.4, -7.405 1.82 Q-7.05 2.24, -6.855 2.24 Q-6.66 2.24, -6.44 1.83 Z" />
<path fill-rule="evenodd" d="M-0.59 3.32 L-1.87 3.32 L-1.87 1.9 L-3.14 1.9 L-4.28 1.24 Q-4.07 0.35, -3.645 -0.785 Q-3.22 -1.92, -2.85 -2.68 Q-2.48 -3.44, -2.37 -3.44 Q-2.21 -3.44, -1.44 -2.985 Q-0.67 -2.53, -0.59 -2.38 L-0.59 0.8 L-0.19 0.8 L-0.19 1.9 L-0.59 1.9 L-0.59 3.32 Z" />
<path fill-rule="evenodd" d="M-1.87 0.8 L-1.87 -2.04 Q-2.34 -0.95, -2.86 0.8 L-1.87 0.8 Z" />
<path fill-rule="evenodd" d="M4.31 -3.32 L4.31 -2.22 L2.14 -2.22 L2.09 -1.24 Q3.35 -0.79, 4.29 0.1 Q4.45 0.25, 4.45 1.055 Q4.45 1.86, 4.275 2.14 Q4.1 2.42, 3.455 2.93 Q2.81 3.44, 2.5 3.44 Q1.96 3.44, 1.305 2.855 Q0.65 2.27, 0.51 1.64 L1.66 0.84 Q1.76 1.36, 2.095 1.8 Q2.43 2.24, 2.6 2.24 Q2.81 2.24, 3.03 1.83 Q3.11 1.67, 3.11 1.245 Q3.11 0.82, 2.99 0.7 Q2.67 0.38, 2.035 0.055 Q1.4 -0.27, 0.72 -0.43 L0.9 -3.32 L4.31 -3.32 Z" />
<path fill-rule="evenodd" d="M5.3 1.92 Q5.19 1.7, 5.19 0.76 Q5.19 -0.18, 5.31 -0.745 Q5.43 -1.31, 5.77 -1.78 Q6.11 -2.25, 6.55 -2.595 Q6.99 -2.94, 7.8 -3.44 L8.85 -2.7 Q7.92 -2.36, 7.3 -1.8 Q7.76 -1.58, 8.3 -1.125 Q8.84 -0.67, 8.965 -0.435 Q9.09 -0.2, 9.09 0.74 Q9.09 1.68, 8.955 1.98 Q8.82 2.28, 8.15 2.86 Q7.48 3.44, 7.14 3.44 Q6.8 3.44, 6.13 2.86 Q5.46 2.28, 5.3 1.92 Z" />
<path fill-rule="evenodd" d="M6.64 -0.71 L6.59 -0.51 Q6.53 -0.13, 6.53 0.7 Q6.53 1.53, 6.61 1.675 Q6.69 1.82, 6.855 1.98 Q7.02 2.14, 7.14 2.14 Q7.26 2.14, 7.435 1.97 Q7.61 1.8, 7.68 1.645 Q7.75 1.49, 7.75 0.8 Q7.75 0.11, 7.525 -0.185 Q7.3 -0.48, 6.64 -0.71 Z" />
<path fill-rule="evenodd" d="M9.83 -2.27 L9.83 -3.32 L13.54 -3.32 Q13.73 -2.65, 13.73 -2.27 L11.23 3.44 Q11.1 3.44, 10.705 3.26 Q10.31 3.08, 10.15 2.94 L12.42 -2.27 L9.83 -2.27 Z" />
<path fill-rule="evenodd" d="M14.58 2.12 Q14.47 1.92, 14.47 1.205 Q14.47 0.49, 14.58 0.3 Q14.75 0.06, 15.17 -0.17 Q14.85 -0.35, 14.68 -0.56 Q14.57 -0.73, 14.57 -1.345 Q14.57 -1.96, 14.63 -2.12 Q14.76 -2.43, 15.415 -2.935 Q16.07 -3.44, 16.405 -3.44 Q16.74 -3.44, 17.415 -2.915 Q18.09 -2.39, 18.21 -2.12 Q18.27 -1.97, 18.27 -1.35 Q18.27 -0.73, 18.16 -0.56 Q17.99 -0.35, 17.67 -0.17 Q18.09 0.06, 18.26 0.3 Q18.37 0.49, 18.37 1.205 Q18.37 1.92, 18.26 2.12 Q18.02 2.45, 17.38 2.945 Q16.74 3.44, 16.42 3.44 Q16.1 3.44, 15.46 2.945 Q14.82 2.45, 14.58 2.12 Z" />
<path fill-rule="evenodd" d="M16.99 1.82 Q17.03 1.5, 17.03 1.215 Q17.03 0.93, 16.99 0.7 Q16.97 0.59, 16.765 0.41 Q16.56 0.23, 16.42 0.23 Q16.28 0.23, 16.075 0.41 Q15.87 0.59, 15.85 0.7 Q15.81 0.93, 15.81 1.215 Q15.81 1.5, 15.85 1.82 Q15.87 1.94, 16.075 2.14 Q16.28 2.34, 16.42 2.34 Q16.56 2.34, 16.765 2.14 Q16.97 1.94, 16.99 1.82 Z" />
<path fill-rule="evenodd" d="M16.9 -1.1 Q16.93 -1.49, 16.93 -1.535 Q16.93 -1.58, 16.9 -1.88 Q16.88 -2.03, 16.71 -2.185 Q16.54 -2.34, 16.42 -2.34 Q16.3 -2.34, 16.13 -2.185 Q15.96 -2.03, 15.94 -1.88 Q15.91 -1.58, 15.91 -1.535 Q15.91 -1.49, 15.94 -1.1 Q15.96 -0.94, 16.13 -0.765 Q16.3 -0.59, 16.42 -0.59 Q16.54 -0.59, 16.71 -0.765 Q16.88 -0.94, 16.9 -1.1 Z" />
<path fill-rule="evenodd" d="M19.27 -1.93 Q19.42 -2.29, 20.075 -2.865 Q20.73 -3.44, 21.065 -3.44 Q21.4 -3.44, 22.07 -2.865 Q22.74 -2.29, 22.9 -1.93 Q23.01 -1.71, 23.01 -0.845 Q23.01 0.02, 22.91 0.535 Q22.81 1.05, 22.64 1.425 Q22.47 1.8, 22.115 2.155 Q21.76 2.51, 21.4 2.775 Q21.04 3.04, 20.41 3.44 L19.35 2.71 Q20.45 2.29, 21.08 1.5 Q20.65 1.45, 20.065 0.945 Q19.48 0.44, 19.295 0.125 Q19.11 -0.19, 19.11 -0.88 Q19.11 -1.57, 19.27 -1.93 Z" />
<path fill-rule="evenodd" d="M21.59 0.44 Q21.67 0.28, 21.67 -0.625 Q21.67 -1.53, 21.59 -1.63 Q21.49 -1.8, 21.33 -1.97 Q21.17 -2.14, 21.055 -2.14 Q20.94 -2.14, 20.775 -1.965 Q20.61 -1.79, 20.53 -1.64 Q20.45 -1.49, 20.45 -0.9 Q20.45 -0.31, 20.69 0 Q20.93 0.31, 21.59 0.44 Z" />
		</g>
	</svg>