<svg xmlns="http://www.w3.org/2000/svg" viewBox="-25.665 -3.405 51.33 6.81">
		<g transform="scale(1,-1)">
			<path fill-rule="evenodd" d="M-24 -3.07 Q-24.505 -2.845, -24.875 -2.415 Q-25.245 -1.985, -25.455 -1.36 Q-25.665 -0.735, -25.665 0.055 Q-25.665 0.915, -25.465 1.545 Q-25.265 2.175, -24.9 2.59 Q-24.535 3.005, -24.025 3.2 Q-23.515 3.395, -22.895 3.395 Q-22.285 3.395, -21.78 3.175 Q-21.275 2.955, -20.905 2.525 Q-20.535 2.095, -20.33 1.47 Q-20.125 0.845, -20.125 0.055 Q-20.125 -0.755, -20.33 -1.38 Q-20.535 -2.005, -20.91 -2.43 Q-21.285 -2.855, -21.785 -3.075 Q-22.285 -3.295, -22.895 -3.295 Q-23.495 -3.295, -24 -3.07 Z M-21.965 -1.97 Q-21.595 -1.675, -21.415 -1.14 Q-21.235 -0.605, -21.235 0.085 Q-21.235 0.755, -21.415 1.27 Q-21.595 1.785, -21.965 2.08 Q-22.335 2.375, -22.905 2.365 Q-23.455 2.375, -23.825 2.08 Q-24.195 1.785, -24.375 1.265 Q-24.555 0.745, -24.555 0.055 Q-24.555 -0.615, -24.375 -1.145 Q-24.195 -1.675, -23.825 -1.97 Q-23.455 -2.265, -22.905 -2.265 Q-22.335 -2.265, -21.965 -1.97 Z" />
<path fill-rule="evenodd" d="M-17.475 3.325 L-17.475 -3.265 L-18.545 -3.265 L-18.545 2.295 L-19.255 2.295 L-19.255 3.325 L-17.475 3.325 Z" />
<path fill-rule="evenodd" d="M-14.715 -2.045 Q-14.135 -1.455, -13.67 -0.895 Q-13.205 -0.335, -12.94 0.185 Q-12.675 0.705, -12.675 1.195 Q-12.675 1.495, -12.77 1.72 Q-12.865 1.945, -13.035 2.09 Q-13.205 2.235, -13.415 2.31 Q-13.625 2.385, -13.865 2.385 Q-14.175 2.385, -14.395 2.285 Q-14.615 2.185, -14.75 2.03 Q-14.885 1.875, -14.955 1.695 Q-15.025 1.515, -15.025 1.335 Q-15.025 1.005, -14.92 0.745 Q-14.815 0.485, -14.635 0.295 L-15.285 -0.305 Q-15.535 -0.155, -15.71 0.13 Q-15.885 0.415, -15.975 0.735 Q-16.065 1.055, -16.065 1.305 Q-16.065 1.855, -15.79 2.33 Q-15.515 2.805, -14.98 3.105 Q-14.445 3.405, -13.685 3.405 Q-13.045 3.405, -12.57 3.115 Q-12.095 2.825, -11.83 2.34 Q-11.565 1.855, -11.565 1.285 Q-11.565 0.795, -11.755 0.325 Q-11.945 -0.145, -12.26 -0.6 Q-12.575 -1.055, -12.96 -1.5 Q-13.276488 -1.865811, -13.589597 -2.235 L-11.375 -2.235 L-11.375 -3.265 L-15.915 -3.265 Q-15.295 -2.635, -14.715 -2.045 Z" />
<path fill-rule="evenodd" d="M-7.971949 0.905272 Q-7.760042 0.885654, -7.555 0.83 Q-7.205 0.735, -6.925 0.5 Q-6.645 0.265, -6.48 -0.115 Q-6.315 -0.495, -6.315 -1.075 Q-6.315 -1.775, -6.635 -2.285 Q-6.955 -2.795, -7.485 -3.07 Q-8.015 -3.345, -8.655 -3.345 Q-9.125 -3.345, -9.62 -3.15 Q-10.115 -2.955, -10.425 -2.625 L-9.875 -1.745 Q-9.695 -1.965, -9.365 -2.14 Q-9.035 -2.315, -8.675 -2.315 Q-8.335 -2.315, -8.05 -2.16 Q-7.765 -2.005, -7.59 -1.71 Q-7.415 -1.415, -7.415 -1.005 Q-7.415 -0.465, -7.73 -0.15 Q-8.045 0.165, -8.605 0.165 Q-8.895 0.165, -9.085 0.125 Q-9.275 0.085, -9.425 0.035 L-9.465 0.065 L-8.066181 2.305 L-10.005 2.305 L-10.005 3.325 L-6.515 3.325 L-7.971949 0.905272 Z" />
<path fill-rule="evenodd" d="M-5.565 -1.695 L-1.505 3.405 L-1.495 3.405 L-1.495 -0.885 L-0.655 -0.885 L-0.655 -1.705 L-1.495 -1.705 L-1.495 -3.265 L-2.565 -3.265 L-2.565 -1.705 L-5.565 -1.705 L-5.565 -1.695 Z M-3.966538 -0.885 L-2.565 -0.885 L-2.565 0.937 L-3.966538 -0.885 Z" />
<path fill-rule="evenodd" d="M1.105 -3.145 Q0.605 -2.945, 0.305 -2.655 L0.865 -1.815 Q1.065 -2.045, 1.4 -2.185 Q1.735 -2.325, 2.055 -2.325 Q2.405 -2.325, 2.67 -2.175 Q2.935 -2.025, 3.09 -1.755 Q3.245 -1.485, 3.245 -1.135 Q3.245 -0.755, 3.105 -0.46 Q2.965 -0.165, 2.685 0.005 Q2.405 0.175, 2.005 0.175 Q1.665 0.175, 1.37 0.08 Q1.075 -0.015, 0.735 -0.205 L0.725 -0.205 L0.725 3.325 L3.905 3.325 L3.905 2.305 L1.655 2.305 L1.655 1.001989 Q1.761427 1.027067, 1.875 1.045 Q2.065 1.075, 2.255 1.075 Q2.935 1.075, 3.4 0.775 Q3.865 0.475, 4.105 -0.015 Q4.345 -0.505, 4.345 -1.095 Q4.345 -1.725, 4.06 -2.235 Q3.775 -2.745, 3.275 -3.045 Q2.775 -3.345, 2.145 -3.345 Q1.605 -3.345, 1.105 -3.145 Z" />
<path fill-rule="evenodd" d="M6.47 -3.025 Q5.925 -2.705, 5.605 -2.105 Q5.285 -1.505, 5.285 -0.675 Q5.285 -0.035, 5.535 0.545 Q5.785 1.125, 6.21 1.64 Q6.635 2.155, 7.17 2.595 Q7.705 3.035, 8.285 3.405 L8.995 2.625 Q8.185 2.245, 7.645 1.745 Q7.105 1.245, 6.815 0.725 Q6.743106 0.596086, 6.686577 0.47086 Q6.796655 0.580681, 6.92 0.67 Q7.355 0.985, 8.045 0.985 Q8.545 0.985, 9 0.71 Q9.455 0.435, 9.735 -0.035 Q10.015 -0.505, 10.015 -1.125 Q10.015 -1.805, 9.685 -2.305 Q9.355 -2.805, 8.825 -3.075 Q8.295 -3.345, 7.685 -3.345 Q7.015 -3.345, 6.47 -3.025 Z M8.29 -2.23 Q8.575 -2.075, 8.745 -1.79 Q8.915 -1.505, 8.915 -1.125 Q8.915 -0.755, 8.745 -0.485 Q8.575 -0.215, 8.285 -0.065 Q7.995 0.085, 7.645 0.085 Q7.295 0.085, 7.01 -0.06 Q6.725 -0.205, 6.555 -0.45 Q6.385 -0.695, 6.385 -0.995 L6.385 -1.175 Q6.385 -1.495, 6.55 -1.775 Q6.715 -2.055, 7.005 -2.22 Q7.295 -2.385, 7.645 -2.385 Q8.005 -2.385, 8.29 -2.23 Z" />
<path fill-rule="evenodd" d="M12.475 -3.265 L11.275 -3.265 L13.528363 2.305 L10.735 2.305 L10.735 3.325 L15.075 3.325 L12.475 -3.265 Z" />
<path fill-rule="evenodd" d="M15.77 -0.295 Q15.965 0.075, 16.255 0.325 Q16.545 0.575, 16.835 0.705 Q16.555 0.905, 16.37 1.18 Q16.185 1.455, 16.185 1.885 Q16.185 2.335, 16.415 2.675 Q16.645 3.015, 17.045 3.21 Q17.445 3.405, 17.945 3.405 Q18.445 3.405, 18.845 3.21 Q19.245 3.015, 19.48 2.685 Q19.715 2.355, 19.715 1.935 Q19.715 1.465, 19.525 1.19 Q19.335 0.915, 19.045 0.705 Q19.345 0.565, 19.64 0.315 Q19.935 0.065, 20.125 -0.305 Q20.315 -0.675, 20.315 -1.175 Q20.315 -1.745, 20 -2.24 Q19.685 -2.735, 19.15 -3.04 Q18.615 -3.345, 17.935 -3.345 Q17.255 -3.345, 16.725 -3.04 Q16.195 -2.735, 15.885 -2.24 Q15.575 -1.745, 15.575 -1.175 Q15.575 -0.665, 15.77 -0.295 Z M16.84 -1.785 Q17.015 -2.085, 17.3 -2.265 Q17.585 -2.445, 17.935 -2.445 Q18.295 -2.445, 18.595 -2.265 Q18.895 -2.085, 19.075 -1.785 Q19.255 -1.485, 19.255 -1.135 Q19.255 -0.775, 19.085 -0.485 Q18.915 -0.195, 18.625 -0.015 Q18.335 0.165, 17.985 0.175 Q17.635 0.185, 17.335 0.01 Q17.035 -0.165, 16.85 -0.465 Q16.665 -0.765, 16.665 -1.135 Q16.665 -1.485, 16.84 -1.785 Z M17.445 1.27 Q17.675 1.065, 17.965 1.065 Q18.255 1.065, 18.475 1.27 Q18.695 1.475, 18.695 1.755 Q18.695 2.085, 18.48 2.3 Q18.265 2.515, 17.965 2.515 Q17.675 2.515, 17.445 2.3 Q17.215 2.085, 17.215 1.755 Q17.215 1.475, 17.445 1.27 Z" />
<path fill-rule="evenodd" d="M21.955 -0.855 Q21.505 -0.585, 21.22 -0.105 Q20.935 0.375, 20.935 0.975 Q20.935 1.705, 21.265 2.225 Q21.595 2.745, 22.13 3.03 Q22.665 3.315, 23.265 3.315 Q23.945 3.315, 24.485 3.015 Q25.025 2.715, 25.345 2.185 Q25.665 1.655, 25.665 0.975 Q25.665 0.185, 25.375 -0.46 Q25.085 -1.105, 24.605 -1.63 Q24.125 -2.155, 23.545 -2.59 Q22.965 -3.025, 22.385 -3.405 L21.675 -2.625 Q22.505 -2.215, 23.115 -1.75 Q23.725 -1.285, 24.07 -0.815 Q23.635 -1.125, 22.905 -1.125 Q22.405 -1.125, 21.955 -0.855 Z M24.215 0.1 Q24.575 0.425, 24.575 0.925 L24.575 1.125 Q24.565 1.465, 24.395 1.74 Q24.225 2.015, 23.945 2.185 Q23.665 2.355, 23.305 2.355 Q22.955 2.355, 22.665 2.195 Q22.375 2.035, 22.21 1.74 Q22.045 1.445, 22.045 1.045 Q22.045 0.665, 22.215 0.375 Q22.385 0.085, 22.67 -0.07 Q22.955 -0.225, 23.305 -0.225 Q23.855 -0.225, 24.215 0.1 Z" />
		</g>
	</svg>