<svg xmlns="http://www.w3.org/2000/svg" viewBox="-22.99 -3.375 45.98 6.75">
		<g transform="scale(1,-1)">
			<path d="M-21.325 -3.1 Q-21.83 -2.875, -22.2 -2.445 Q-22.57 -2.015, -22.78 -1.39 Q-22.99 -0.765, -22.99 0.025 Q-22.99 0.885, -22.79 1.515 Q-22.59 2.145, -22.225 2.56 Q-21.86 2.975, -21.35 3.17 Q-20.84 3.365, -20.22 3.365 Q-19.61 3.365, -19.105 3.145 Q-18.6 2.925, -18.23 2.495 Q-17.86 2.065, -17.655 1.44 Q-17.45 0.815, -17.45 0.025 Q-17.45 -0.785, -17.655 -1.41 Q-17.86 -2.035, -18.235 -2.46 Q-18.61 -2.885, -19.11 -3.105 Q-19.61 -3.325, -20.22 -3.325 Q-20.82 -3.325, -21.325 -3.1 Z M-19.29 -2 Q-18.92 -1.705, -18.74 -1.17 Q-18.56 -0.635, -18.56 0.055 Q-18.56 0.725, -18.74 1.24 Q-18.92 1.755, -19.29 2.05 Q-19.66 2.345, -20.23 2.335 Q-20.78 2.345, -21.15 2.05 Q-21.52 1.755, -21.7 1.235 Q-21.88 0.715, -21.88 0.025 Q-21.88 -0.645, -21.7 -1.175 Q-21.52 -1.705, -21.15 -2 Q-20.78 -2.295, -20.23 -2.295 Q-19.66 -2.295, -19.29 -2 Z" />
<path d="M-16.58 3.295 L-14.8 3.295 L-14.8 -3.295 L-15.87 -3.295 L-15.87 2.265 L-16.58 2.265 L-16.58 3.295 Z" />
<path d="M-13.24 -3.295 Q-12.62 -2.665, -12.04 -2.075 Q-11.46 -1.485, -10.995 -0.925 Q-10.53 -0.365, -10.265 0.155 Q-10 0.675, -10 1.165 Q-10 1.465, -10.095 1.69 Q-10.19 1.915, -10.36 2.06 Q-10.53 2.205, -10.74 2.28 Q-10.95 2.355, -11.19 2.355 Q-11.5 2.355, -11.72 2.255 Q-11.94 2.155, -12.075 2 Q-12.21 1.845, -12.28 1.665 Q-12.35 1.485, -12.35 1.305 Q-12.35 0.975, -12.245 0.715 Q-12.14 0.455, -11.96 0.265 L-12.61 -0.335 Q-12.86 -0.185, -13.035 0.1 Q-13.21 0.385, -13.3 0.705 Q-13.39 1.025, -13.39 1.275 Q-13.39 1.825, -13.115 2.3 Q-12.84 2.775, -12.305 3.075 Q-11.77 3.375, -11.01 3.375 Q-10.37 3.375, -9.895 3.085 Q-9.42 2.795, -9.155 2.31 Q-8.89 1.825, -8.89 1.255 Q-8.89 0.765, -9.08 0.295 Q-9.27 -0.175, -9.585 -0.63 Q-9.9 -1.085, -10.285 -1.53 Q-10.601488 -1.895811, -10.914597 -2.265 L-8.7 -2.265 L-8.7 -3.295 L-13.24 -3.295 Z" />
<path d="M-3.84 3.295 L-5.296949 0.875272 Q-5.085042 0.855654, -4.88 0.8 Q-4.53 0.705, -4.25 0.47 Q-3.97 0.235, -3.805 -0.145 Q-3.64 -0.525, -3.64 -1.105 Q-3.64 -1.805, -3.96 -2.315 Q-4.28 -2.825, -4.81 -3.1 Q-5.34 -3.375, -5.98 -3.375 Q-6.45 -3.375, -6.945 -3.18 Q-7.44 -2.985, -7.75 -2.655 L-7.2 -1.775 Q-7.02 -1.995, -6.69 -2.17 Q-6.36 -2.345, -6 -2.345 Q-5.66 -2.345, -5.375 -2.19 Q-5.09 -2.035, -4.915 -1.74 Q-4.74 -1.445, -4.74 -1.035 Q-4.74 -0.495, -5.055 -0.18 Q-5.37 0.135, -5.93 0.135 Q-6.22 0.135, -6.41 0.095 Q-6.6 0.055, -6.75 0.005 L-6.79 0.035 L-5.391181 2.275 L-7.33 2.275 L-7.33 3.295 L-3.84 3.295 Z" />
<path d="M-2.89 -1.735 L-2.89 -1.725 L1.17 3.375 L1.18 3.375 L1.18 -0.915 L2.02 -0.915 L2.02 -1.735 L1.18 -1.735 L1.18 -3.295 L0.11 -3.295 L0.11 -1.735 L-2.89 -1.735 Z M-1.291538 -0.915 L0.11 -0.915 L0.11 0.907 L-1.291538 -0.915 Z" />
<path d="M3.78 -3.175 Q3.28 -2.975, 2.98 -2.685 L3.54 -1.845 Q3.74 -2.075, 4.075 -2.215 Q4.41 -2.355, 4.73 -2.355 Q5.08 -2.355, 5.345 -2.205 Q5.61 -2.055, 5.765 -1.785 Q5.92 -1.515, 5.92 -1.165 Q5.92 -0.785, 5.78 -0.49 Q5.64 -0.195, 5.36 -0.025 Q5.08 0.145, 4.68 0.145 Q4.34 0.145, 4.045 0.05 Q3.75 -0.045, 3.41 -0.235 L3.4 -0.235 L3.4 3.295 L6.58 3.295 L6.58 2.275 L4.33 2.275 L4.33 0.971989 Q4.436427 0.997067, 4.55 1.015 Q4.74 1.045, 4.93 1.045 Q5.61 1.045, 6.075 0.745 Q6.54 0.445, 6.78 -0.045 Q7.02 -0.535, 7.02 -1.125 Q7.02 -1.755, 6.735 -2.265 Q6.45 -2.775, 5.95 -3.075 Q5.45 -3.375, 4.82 -3.375 Q4.28 -3.375, 3.78 -3.175 Z" />
<path d="M9.145 -3.055 Q8.6 -2.735, 8.28 -2.135 Q7.96 -1.535, 7.96 -0.705 Q7.96 -0.065, 8.21 0.515 Q8.46 1.095, 8.885 1.61 Q9.31 2.125, 9.845 2.565 Q10.38 3.005, 10.96 3.375 L11.67 2.595 Q10.86 2.215, 10.32 1.715 Q9.78 1.215, 9.49 0.695 Q9.418106 0.566086, 9.361577 0.44086 Q9.471655 0.550681, 9.595 0.64 Q10.03 0.955, 10.72 0.955 Q11.22 0.955, 11.675 0.68 Q12.13 0.405, 12.41 -0.065 Q12.69 -0.535, 12.69 -1.155 Q12.69 -1.835, 12.36 -2.335 Q12.03 -2.835, 11.5 -3.105 Q10.97 -3.375, 10.36 -3.375 Q9.69 -3.375, 9.145 -3.055 Z M10.965 -2.26 Q11.25 -2.105, 11.42 -1.82 Q11.59 -1.535, 11.59 -1.155 Q11.59 -0.785, 11.42 -0.515 Q11.25 -0.245, 10.96 -0.095 Q10.67 0.055, 10.32 0.055 Q9.97 0.055, 9.685 -0.09 Q9.4 -0.235, 9.23 -0.48 Q9.06 -0.725, 9.06 -1.025 L9.06 -1.205 Q9.06 -1.525, 9.225 -1.805 Q9.39 -2.085, 9.68 -2.25 Q9.97 -2.415, 10.32 -2.415 Q10.68 -2.415, 10.965 -2.26 Z" />
<path d="M17.75 3.295 L15.15 -3.295 L13.95 -3.295 L16.203363 2.275 L13.41 2.275 L13.41 3.295 L17.75 3.295 Z" />
<path d="M18.445 -0.325 Q18.64 0.045, 18.93 0.295 Q19.22 0.545, 19.51 0.675 Q19.23 0.875, 19.045 1.15 Q18.86 1.425, 18.86 1.855 Q18.86 2.305, 19.09 2.645 Q19.32 2.985, 19.72 3.18 Q20.12 3.375, 20.62 3.375 Q21.12 3.375, 21.52 3.18 Q21.92 2.985, 22.155 2.655 Q22.39 2.325, 22.39 1.905 Q22.39 1.435, 22.2 1.16 Q22.01 0.885, 21.72 0.675 Q22.02 0.535, 22.315 0.285 Q22.61 0.035, 22.8 -0.335 Q22.99 -0.705, 22.99 -1.205 Q22.99 -1.775, 22.675 -2.27 Q22.36 -2.765, 21.825 -3.07 Q21.29 -3.375, 20.61 -3.375 Q19.93 -3.375, 19.4 -3.07 Q18.87 -2.765, 18.56 -2.27 Q18.25 -1.775, 18.25 -1.205 Q18.25 -0.695, 18.445 -0.325 Z M19.515 -1.815 Q19.69 -2.115, 19.975 -2.295 Q20.26 -2.475, 20.61 -2.475 Q20.97 -2.475, 21.27 -2.295 Q21.57 -2.115, 21.75 -1.815 Q21.93 -1.515, 21.93 -1.165 Q21.93 -0.805, 21.76 -0.515 Q21.59 -0.225, 21.3 -0.045 Q21.01 0.135, 20.66 0.145 Q20.31 0.155, 20.01 -0.02 Q19.71 -0.195, 19.525 -0.495 Q19.34 -0.795, 19.34 -1.165 Q19.34 -1.515, 19.515 -1.815 Z M20.12 1.24 Q20.35 1.035, 20.64 1.035 Q20.93 1.035, 21.15 1.24 Q21.37 1.445, 21.37 1.725 Q21.37 2.055, 21.155 2.27 Q20.94 2.485, 20.64 2.485 Q20.35 2.485, 20.12 2.27 Q19.89 2.055, 19.89 1.725 Q19.89 1.445, 20.12 1.24 Z" />
		</g>
	</svg>