<svg xmlns="http://www.w3.org/2000/svg" viewBox="-27.548828 -3.535156 55.097656 7.070312">
		<g transform="scale(1,-1)">
			<path fill-rule="evenodd" d="M-23.007813 -0.019531 Q-23.007813 -1.09375, -23.28125 -1.889648 Q-23.554688 -2.685547, -24.067383 -3.110352 Q-24.580078 -3.535156, -25.273438 -3.535156 Q-25.966797 -3.535156, -26.484375 -3.110352 Q-27.001953 -2.685547, -27.275391 -1.889648 Q-27.548828 -1.09375, -27.548828 -0.019531 Q-27.548828 1.054688, -27.275391 1.850586 Q-27.001953 2.646484, -26.484375 3.071289 Q-25.966797 3.496094, -25.273438 3.496094 Q-24.580078 3.496094, -24.067383 3.071289 Q-23.554688 2.646484, -23.28125 1.850586 Q-23.007813 1.054688, -23.007813 -0.019531 Z M-26.669922 -0.859375 L-24.091797 1.71875 Q-24.277344 2.216797, -24.580078 2.485352 Q-24.882813 2.753906, -25.273438 2.753906 Q-25.9375 2.753906, -26.328125 2.006836 Q-26.71875 1.259766, -26.71875 -0.019531 Q-26.71875 -0.419922, -26.669922 -0.859375 Z M-25.273438 -2.783203 Q-24.609375 -2.783203, -24.223633 -2.041016 Q-23.837891 -1.298828, -23.837891 -0.019531 Q-23.837891 0.390625, -23.886719 0.830078 L-26.455078 -1.738281 Q-26.269531 -2.246094, -25.966797 -2.514648 Q-25.664063 -2.783203, -25.273438 -2.783203 Z" />
<path fill-rule="evenodd" d="M-17.685547 -2.929688 L-17.685547 -3.193359 Q-17.685547 -3.4375, -17.929688 -3.4375 L-21.396484 -3.4375 Q-21.640625 -3.4375, -21.640625 -3.193359 L-21.640625 -2.929688 Q-21.640625 -2.685547, -21.396484 -2.685547 L-19.765625 -2.685547 L-19.765625 1.640625 L-21.396484 1.640625 Q-21.640625 1.640625, -21.640625 1.884766 L-21.640625 2.148438 Q-21.640625 2.392578, -21.396484 2.392578 Q-20.664063 2.392578, -20.253906 2.573242 Q-19.84375 2.753906, -19.648438 3.203125 Q-19.560547 3.398438, -19.365234 3.398438 L-19.179688 3.398438 Q-18.935547 3.398438, -18.935547 3.154297 L-18.935547 -2.685547 L-17.929688 -2.685547 Q-17.685547 -2.685547, -17.685547 -2.929688 Z" />
<path fill-rule="evenodd" d="M-11.835938 -2.929688 L-11.835938 -3.203125 Q-11.835938 -3.447266, -12.080078 -3.447266 L-15.791016 -3.447266 Q-16.035156 -3.447266, -16.035156 -3.203125 L-16.035156 -2.96875 Q-16.035156 -2.363281, -15.771484 -1.889648 Q-15.507813 -1.416016, -15.185547 -1.123047 Q-14.863281 -0.830078, -14.326172 -0.419922 Q-13.808594 -0.009766, -13.515625 0.263672 Q-13.222656 0.537109, -13.037109 0.864258 Q-12.851563 1.191406, -12.851563 1.582031 Q-12.851563 2.734375, -14.267578 2.734375 Q-14.824219 2.734375, -15.488281 2.5 Q-15.566406 2.480469, -15.595703 2.480469 Q-15.732422 2.480469, -15.810547 2.646484 L-15.898438 2.900391 Q-15.917969 2.939453, -15.917969 3.007813 Q-15.917969 3.154297, -15.761719 3.212891 Q-15.009766 3.496094, -14.267578 3.496094 Q-13.291016 3.496094, -12.651367 3.017578 Q-12.011719 2.539063, -12.011719 1.582031 Q-12.011719 1.025391, -12.260742 0.571289 Q-12.509766 0.117188, -12.866211 -0.219727 Q-13.222656 -0.556641, -13.808594 -1.015625 Q-14.482422 -1.533203, -14.814453 -1.889648 Q-15.146484 -2.246094, -15.195313 -2.685547 L-12.080078 -2.685547 Q-11.835938 -2.685547, -11.835938 -2.929688 Z" />
<path fill-rule="evenodd" d="M-10.126953 3.144531 Q-10.126953 3.320313, -9.951172 3.359375 Q-9.404297 3.496094, -8.818359 3.496094 Q-7.861328 3.496094, -7.207031 3.071289 Q-6.552734 2.646484, -6.552734 1.748047 Q-6.552734 1.191406, -6.831055 0.805664 Q-7.109375 0.419922, -7.666016 0.117188 Q-7.148438 -0.117188, -6.801758 -0.59082 Q-6.455078 -1.064453, -6.455078 -1.708984 Q-6.455078 -2.626953, -7.158203 -3.081055 Q-7.861328 -3.535156, -8.867188 -3.535156 Q-9.482422 -3.535156, -10.048828 -3.398438 Q-10.224609 -3.359375, -10.224609 -3.183594 Q-10.224609 -3.125, -10.214844 -3.095703 L-10.136719 -2.822266 Q-10.097656 -2.65625, -9.931641 -2.65625 Q-9.873047 -2.65625, -9.833984 -2.666016 Q-9.375 -2.773438, -8.867188 -2.773438 Q-7.294922 -2.773438, -7.294922 -1.591797 Q-7.294922 -1.005859, -7.714844 -0.639648 Q-8.134766 -0.273438, -8.798828 -0.273438 L-9.296875 -0.273438 Q-9.541016 -0.273438, -9.541016 -0.029297 L-9.541016 0.234375 Q-9.541016 0.478516, -9.296875 0.478516 L-8.798828 0.478516 Q-8.144531 0.478516, -7.768555 0.791016 Q-7.392578 1.103516, -7.392578 1.699219 Q-7.392578 2.255859, -7.753906 2.495117 Q-8.115234 2.734375, -8.818359 2.734375 Q-9.277344 2.734375, -9.736328 2.626953 Q-9.775391 2.617188, -9.833984 2.617188 Q-10 2.617188, -10.039063 2.783203 L-10.117188 3.056641 Q-10.126953 3.085938, -10.126953 3.144531 Z" />
<path fill-rule="evenodd" d="M-0.644531 -1.523438 L-0.644531 -1.777344 Q-0.644531 -2.021484, -0.888672 -2.021484 L-1.425781 -2.021484 L-1.425781 -3.193359 Q-1.425781 -3.4375, -1.669922 -3.4375 L-2.011719 -3.4375 Q-2.246094 -3.4375, -2.246094 -3.193359 L-2.246094 -2.021484 L-4.677734 -2.021484 Q-4.912109 -2.021484, -4.912109 -1.787109 L-4.912109 -1.396484 Q-4.912109 -1.230469, -4.84375 -1.09375 L-2.714844 3.173828 Q-2.65625 3.300781, -2.578125 3.349609 Q-2.5 3.398438, -2.353516 3.398438 L-2.001953 3.398438 Q-1.894531 3.398438, -1.835938 3.354492 Q-1.777344 3.310547, -1.777344 3.232422 Q-1.777344 3.203125, -1.816406 3.105469 L-4.013672 -1.279297 L-2.246094 -1.279297 L-2.246094 0.390625 Q-2.246094 0.634766, -2.001953 0.634766 L-1.660156 0.634766 Q-1.416016 0.634766, -1.416016 0.390625 L-1.416016 -1.279297 L-0.888672 -1.279297 Q-0.644531 -1.279297, -0.644531 -1.523438 Z" />
<path fill-rule="evenodd" d="M4.804688 -1.376953 Q4.804688 -2.451172, 4.199219 -2.993164 Q3.59375 -3.535156, 2.392578 -3.535156 Q1.777344 -3.535156, 1.210938 -3.398438 Q1.035156 -3.359375, 1.035156 -3.183594 Q1.035156 -3.125, 1.044922 -3.095703 L1.123047 -2.822266 Q1.162109 -2.65625, 1.328125 -2.65625 Q1.386719 -2.65625, 1.425781 -2.666016 Q1.884766 -2.773438, 2.392578 -2.773438 Q3.964844 -2.773438, 3.964844 -1.376953 Q3.964844 0.019531, 2.558594 0.019531 L1.933594 0.019531 L1.445313 0.087891 Q1.210938 0.117188, 1.230469 0.361328 L1.445313 3.173828 Q1.464844 3.398438, 1.708984 3.398438 L4.199219 3.398438 Q4.443359 3.398438, 4.443359 3.154297 L4.443359 2.900391 Q4.443359 2.65625, 4.199219 2.65625 L2.1875 2.65625 L2.041016 0.771484 L2.558594 0.771484 Q3.671875 0.771484, 4.238281 0.229492 Q4.804688 -0.3125, 4.804688 -1.376953 Z" />
<path fill-rule="evenodd" d="M9.501953 2.666016 Q9.130859 2.734375, 8.847656 2.734375 Q8.154297 2.734375, 7.641602 2.226563 Q7.128906 1.71875, 7.011719 0.488281 Q7.851563 0.751953, 8.388672 0.751953 Q8.964844 0.751953, 9.433594 0.50293 Q9.902344 0.253906, 10.175781 -0.209961 Q10.449219 -0.673828, 10.449219 -1.289063 Q10.449219 -1.972656, 10.19043 -2.480469 Q9.931641 -2.988281, 9.462891 -3.261719 Q8.994141 -3.535156, 8.369141 -3.535156 Q7.294922 -3.535156, 6.708984 -2.719727 Q6.123047 -1.904297, 6.123047 -0.253906 Q6.123047 0.927734, 6.455078 1.772461 Q6.787109 2.617188, 7.392578 3.056641 Q7.998047 3.496094, 8.828125 3.496094 Q9.169922 3.496094, 9.658203 3.417969 Q9.775391 3.398438, 9.824219 3.320313 Q9.873047 3.242188, 9.853516 3.125 L9.794922 2.851563 Q9.736328 2.626953, 9.501953 2.666016 Z M8.398438 -2.773438 Q8.925781 -2.773438, 9.267578 -2.387695 Q9.609375 -2.001953, 9.609375 -1.289063 Q9.609375 -0.703125, 9.267578 -0.356445 Q8.925781 -0.009766, 8.349609 -0.009766 Q7.607422 -0.009766, 6.962891 -0.341797 Q6.962891 -1.601563, 7.368164 -2.1875 Q7.773438 -2.773438, 8.398438 -2.773438 Z" />
<path fill-rule="evenodd" d="M16.25 3.164063 L16.25 2.675781 Q16.25 2.275391, 16.152344 1.918945 Q16.054688 1.5625, 15.810547 1.103516 L14.853516 -0.703125 Q14.169922 -2.021484, 14.169922 -3.203125 Q14.169922 -3.4375, 13.916016 -3.4375 L13.583984 -3.4375 Q13.339844 -3.4375, 13.339844 -3.203125 Q13.339844 -2.021484, 14.140625 -0.390625 L15.019531 1.367188 Q15.244141 1.806641, 15.332031 2.094727 Q15.419922 2.382813, 15.419922 2.65625 L12.880859 2.65625 L12.880859 1.621094 Q12.880859 1.376953, 12.636719 1.376953 L12.294922 1.376953 Q12.050781 1.376953, 12.050781 1.621094 L12.050781 3.154297 Q12.050781 3.398438, 12.294922 3.398438 L16.015625 3.398438 Q16.25 3.398438, 16.25 3.164063 Z" />
<path fill-rule="evenodd" d="M21.904297 -1.787109 Q21.904297 -2.626953, 21.279297 -3.081055 Q20.654297 -3.535156, 19.648438 -3.535156 Q19.042969 -3.535156, 18.525391 -3.325195 Q18.007813 -3.115234, 17.700195 -2.729492 Q17.392578 -2.34375, 17.392578 -1.845703 Q17.392578 -0.800781, 18.90625 0.048828 Q18.300781 0.361328, 17.958984 0.776367 Q17.617188 1.191406, 17.617188 1.845703 Q17.617188 2.333984, 17.880859 2.709961 Q18.144531 3.085938, 18.608398 3.291016 Q19.072266 3.496094, 19.648438 3.496094 Q20.224609 3.496094, 20.688477 3.295898 Q21.152344 3.095703, 21.416016 2.739258 Q21.679688 2.382813, 21.679688 1.914063 Q21.679688 0.869141, 20.46875 0.068359 Q21.142578 -0.302734, 21.523438 -0.727539 Q21.904297 -1.152344, 21.904297 -1.787109 Z M19.648438 -2.783203 Q20.253906 -2.783203, 20.664063 -2.524414 Q21.074219 -2.265625, 21.074219 -1.767578 Q21.074219 -1.279297, 20.664063 -0.922852 Q20.253906 -0.566406, 19.541016 -0.253906 Q18.90625 -0.615234, 18.564453 -0.981445 Q18.222656 -1.347656, 18.222656 -1.767578 Q18.222656 -2.246094, 18.623047 -2.514648 Q19.023438 -2.783203, 19.648438 -2.783203 Z M19.84375 0.400391 Q20.322266 0.722656, 20.581055 1.132813 Q20.839844 1.542969, 20.839844 1.865234 Q20.839844 2.236328, 20.498047 2.495117 Q20.15625 2.753906, 19.648438 2.753906 Q19.130859 2.753906, 18.789063 2.495117 Q18.447266 2.236328, 18.447266 1.835938 Q18.447266 1.054688, 19.84375 0.400391 Z" />
<path fill-rule="evenodd" d="M24.169922 -2.666016 Q24.541016 -2.734375, 24.824219 -2.734375 Q25.517578 -2.734375, 26.030273 -2.226563 Q26.542969 -1.71875, 26.660156 -0.488281 Q25.820313 -0.751953, 25.283203 -0.751953 Q24.707031 -0.751953, 24.238281 -0.50293 Q23.769531 -0.253906, 23.496094 0.209961 Q23.222656 0.673828, 23.222656 1.289063 Q23.222656 1.972656, 23.481445 2.480469 Q23.740234 2.988281, 24.208984 3.261719 Q24.677734 3.535156, 25.302734 3.535156 Q26.376953 3.535156, 26.962891 2.719727 Q27.548828 1.904297, 27.548828 0.253906 Q27.548828 -0.927734, 27.216797 -1.772461 Q26.884766 -2.617188, 26.279297 -3.056641 Q25.673828 -3.496094, 24.84375 -3.496094 Q24.501953 -3.496094, 24.013672 -3.417969 Q23.896484 -3.398438, 23.847656 -3.320313 Q23.798828 -3.242188, 23.818359 -3.125 L23.876953 -2.851563 Q23.935547 -2.626953, 24.169922 -2.666016 Z M25.322266 0.009766 Q26.064453 0.009766, 26.708984 0.341797 Q26.708984 1.601563, 26.303711 2.1875 Q25.898438 2.773438, 25.273438 2.773438 Q24.746094 2.773438, 24.404297 2.387695 Q24.0625 2.001953, 24.0625 1.289063 Q24.0625 0.703125, 24.404297 0.356445 Q24.746094 0.009766, 25.322266 0.009766 Z" />
		</g>
	</svg>