<svg xmlns="http://www.w3.org/2000/svg" viewBox="-19.08 -3.87 38.16 7.74">
		<g transform="scale(1,-1)">
			<path fill-rule="evenodd" d="M-17.51 3.69 L-17.7 3.1 L-17.83 2.81 L-18.28 1.84 L-18.29 1.56 L-18.45 1.57 L-18.8 0.87 L-19.08 0.29 L-19.05 -0.21 L-18.57 -1.28 L-18.15 -2.08 L-18.16 -2.08 L-17.68 -3.25 L-17.59 -3.48 L-17.48 -3.78 L-16.6 -3.68 L-16.11 -2.46 L-16.06 -2.25 L-15.71 -1.68 L-15.34 -0.81 L-15.03 -0.24 L-15 0.17 L-15.34 0.81 L-15.33 0.81 L-15.74 1.63 L-15.88 1.75 L-15.88 1.92 L-16.65 3.72 L-16.94 3.74 L-17.51 3.69 Z M-17.47 -1.44 L-17.66 -1.27 L-17.64 -1.15 L-18.17 0.13 L-17.99 0.55 L-18 0.62 L-17.35 1.93 L-17.35 2.01 L-17.14 2.43 L-17.08 2.59 L-16.4 0.97 L-16.25 0.98 L-16.34 0.82 L-15.96 -0.02 L-15.92 -0.1 L-15.96 -0.23 L-16.37 -1.11 L-16.37 -1.1 L-16.58 -1.62 L-16.54 -1.79 L-16.67 -1.77 L-16.97 -2.35 L-17.04 -2.52 L-17.47 -1.44 Z" />
<path fill-rule="evenodd" d="M-17.44 0.35 L-17.6 0.13 L-17.59 -0.14 L-17.48 -0.36 L-17.18 -0.81 L-16.81 -0.63 L-16.72 -0.45 L-16.68 -0.36 L-16.51 -0.17 L-16.52 0.12 L-16.66 0.39 L-16.99 0.78 L-17.35 0.6 L-17.44 0.35 Z" />
<path fill-rule="evenodd" d="M-13.34 0.68 L-13.16 0.56 L-13.33 0.45 L-13.38 0.02 L-13.37 -0.31 C-13.36 -0.59, -13.33 -0.84, -13.32 -1.12 L-13.45 -3.1 L-13.45 -3.65 L-12.79 -3.65 L-12.42 -3.57 L-12.38 -3.17 L-12.4 -2.95 L-12.57 -2.84 L-12.45 -2.75 L-12.55 -0.26 L-12.46 2.54 L-12.42 3.45 L-13.09 3.74 L-13.22 3.64 L-13.62 3.24 L-13.7 2.95 L-13.86 3.02 L-14.32 2.63 L-14.55 2.49 L-14.77 2.29 L-14.48 1.8 L-14.24 1.47 L-13.63 2.06 L-13.36 2.22 L-13.38 1 L-13.34 0.68 Z" />
<path fill-rule="evenodd" d="M-9.6 -0.7 L-9.66 -0.57 L-9.45 -0.49 L-9.27 -0.26 L-9.14 -0.01 L-8.35 1.7 L-8.34 2.13 L-8.86 2.69 L-9.14 3.11 L-9.57 3.67 L-10.2 3.75 L-10.52 3.38 L-10.94 2.98 L-10.92 2.85 L-11.07 2.87 L-11.71 2.27 L-11.46 1.84 L-10.93 1.63 L-10.58 2.15 L-10.46 2.29 L-10.23 2.51 L-10.06 2.64 L-9.68 2.34 L-9.68 2.25 L-9.31 1.8 L-9.4 1.49 L-9.85 0.55 C-9.92 0.37, -10.03 0.09, -10.1 -0.09 L-11.26 -2.34 L-11.47 -2.86 L-11.31 -3.59 L-11 -3.58 L-10.36 -3.54 L-8.77 -3.67 L-8.41 -3.57 L-8.38 -2.76 L-8.63 -2.56 L-9.02 -2.6 L-9.16 -2.76 L-9.29 -2.63 L-9.87 -2.69 L-10.36 -2.65 L-10.26 -2.37 L-10.08 -1.86 L-9.73 -1.05 L-9.6 -0.7 Z" />
<path fill-rule="evenodd" d="M-7.3 0.67 L-6.87 0.22 L-6.7 0.3 L-6.71 0.12 L-6.1 -0.68 L-6.08 -0.68 L-5.88 -0.94 L-6.21 -1.42 L-6.21 -1.41 L-6.94 -2.2 L-7.11 -2.3 L-7.26 -2.43 L-7.46 -2.61 L-7.87 -3.09 L-7.19 -3.82 L-6.81 -3.56 L-6.3 -2.76 L-5.43 -1.8 L-4.89 -1.23 L-4.84 -0.53 L-5.22 -0.21 L-5.57 0.23 L-6.18 0.83 L-6.28 1.05 L-6.18 1.21 L-6.1 1.46 L-4.92 2.93 L-4.99 3.65 L-6.26 3.68 L-6.92 3.7 L-7.02 3.54 L-7.12 3.68 L-7.29 3.69 L-7.77 3.76 L-7.87 3.25 L-7.81 2.79 L-7.37 2.78 L-6.55 2.86 L-6.16 2.85 L-6.08 2.85 L-6.22 2.71 L-6.56 2.22 L-6.65 2.04 L-6.61 1.88 L-6.76 1.86 L-7.3 1.24 L-7.3 0.67 Z" />
<path fill-rule="evenodd" d="M-2.11 -0.26 L-1.96 -0.36 L-2.08 -0.56 L-2.09 -1.15 L-2.1 -1.41 L-2.1 -1.43 L-2.48 -1.41 L-2.99 -1.42 L-3.22 -1.41 L-3.05 -0.69 L-3.13 -0.43 L-2.95 -0.32 L-2.55 1.16 L-2.42 1.25 L-1.91 2.77 L-1.7 3.51 L-2.35 3.76 L-2.7 3.75 L-2.81 3.48 L-3.13 2.12 L-3.14 1.93 L-3.28 1.69 L-4.11 -0.92 L-4.1 -0.92 L-4.4 -1.77 L-4.13 -2.32 L-3.31 -2.26 L-2.65 -2.26 L-2.03 -2.26 L-2.07 -2.76 L-1.97 -2.98 L-2.1 -3.05 L-2.12 -3.63 L-1.62 -3.7 L-1.11 -3.62 L-1.12 -2.9 L-1.16 -1.92 L-1.19 -1.06 L-1.11 0 L-1.13 0.49 L-2.1 0.44 L-2.11 -0.26 Z" />
<path fill-rule="evenodd" d="M-0.17 0.74 L0.05 0.26 L0.74 -0.13 L1.42 -0.74 L1.67 -0.95 L1.32 -1.36 L1.31 -1.56 L1.12 -1.57 L0.5 -2.33 L0.03 -2.73 L-0.4 -3.19 L0.29 -3.87 L0.68 -3.7 L1.19 -2.86 L1.89 -2.05 L2.64 -1.32 L2.61 -0.43 L2.19 -0.12 L1.48 0.45 L1.34 0.44 L1.33 0.58 L0.99 0.83 L0.83 0.99 L0.9 1.61 L0.76 1.74 L0.9 1.86 L0.94 2.25 L1.03 2.83 L1.49 2.81 L1.54 2.92 L1.83 2.78 L2.34 2.73 L2.52 2.88 L2.48 3.7 L2.11 3.71 L1.45 3.64 L0.44 3.7 L0.39 3.7 L0.19 3.56 L0.14 2.83 L0.11 2.55 L-0.06 1.4 L-0.17 0.74 Z" />
<path fill-rule="evenodd" d="M5.19 1.34 L4.99 1.45 L5.4 1.64 L5.85 2.55 L6.11 2.91 L6.37 3.42 L5.4 3.87 L5.1 3.22 L4.86 2.7 L4.88 2.51 L4.72 2.39 L3.83 0.46 L3.63 0.23 L3.51 -0.11 L3.23 -0.61 L3.04 -0.93 L3.09 -1.7 L4.05 -2.83 L4.27 -2.78 L4.23 -2.96 L4.56 -3.44 L4.56 -3.43 L4.66 -3.67 L5.04 -3.64 L5.51 -3.62 L6.32 -2.43 L6.61 -2.06 L6.98 -1.48 L6.93 -0.79 L6.39 -0.38 L6.27 -0.39 L6.26 -0.35 L5.94 -0.01 L5.49 0.36 L5.37 0.36 L4.89 -0.38 L5.27 -0.63 L5.72 -1.09 L5.83 -1.19 L5.99 -1.34 L5.89 -1.55 L5.58 -1.99 L5.17 -2.51 L5.11 -2.6 L4.98 -2.4 L4.63 -2.03 L4.39 -1.72 L4 -1.19 L4.17 -0.85 L4.25 -0.6 L5.19 1.34 Z" />
<path fill-rule="evenodd" d="M8.58 0.03 L8.52 -0.2 L8.58 -0.27 L8.5 -0.38 L8.09 -1.76 L7.76 -2.7 L7.79 -2.74 L7.61 -3.04 L7.47 -3.31 L7.58 -3.62 L8.49 -3.79 L8.59 -3.41 L8.59 -3.22 L8.67 -3.02 L8.82 -2.34 L8.8 -1.83 L9 -1.74 L9.34 -0.45 L9.35 -0.2 L9.5 0.06 L10.28 2.41 L10.56 3.09 L10.36 3.7 L10.07 3.69 L9.52 3.67 L8.32 3.67 L7.63 3.72 L7.41 3.54 L7.4 2.81 L7.84 2.74 L8.57 2.82 L8.81 2.86 L8.95 2.81 L9.43 2.78 L9.06 1.52 L9.14 1.35 L8.91 1.05 L8.58 0.03 Z" />
<path fill-rule="evenodd" d="M12.38 0.15 L12.1 -0.22 L11.56 -0.71 L11.05 -1.28 L11.05 -1.9 L12.08 -3 L12.6 -3.67 L13.34 -3.68 L13.68 -3.23 L13.98 -2.75 L14.27 -2.48 L14.88 -1.81 L14.86 -1.15 L14.62 -0.93 L14.32 -0.65 L13.83 -0.19 L13.52 0.16 L13.87 0.53 L13.92 0.69 L14.3 1.07 L14.7 1.51 L14.63 2.18 L14.34 2.41 L13.52 3.32 L13.32 3.62 L13.26 3.73 L12.58 3.73 L12.33 3.38 L12.2 3.14 L12.29 2.88 L12.03 2.99 L11.17 2.04 L11.11 1.48 L11.77 0.81 L11.84 0.84 L12.09 0.42 L12.38 0.15 Z M13.6 -1.12 L13.73 -1.11 L13.72 -1.23 L13.97 -1.47 L13.72 -1.85 L13.28 -2.41 L13.02 -2.65 L12.96 -2.57 L12.64 -2.2 L12.39 -2.15 L12.48 -2 L12.01 -1.5 L12.1 -1.36 L12.16 -1.34 L12.88 -0.52 L12.93 -0.46 L13.6 -1.12 Z M12.46 1.25 L12.34 1.33 L12.13 1.59 L12.03 1.74 L12.43 2.26 L12.49 2.3 L12.74 2.55 L12.87 2.74 L13.5 2.05 L13.78 1.74 L13.75 1.62 L13.58 1.45 L12.94 0.66 L12.46 1.25 Z" />
<path fill-rule="evenodd" d="M17.19 0.4 L16.87 0.64 L16.6 0.87 L16.58 0.95 L16.18 1.34 L16.28 1.51 L16.4 1.75 L16.64 1.99 L17.09 2.64 L17.18 2.55 L17.69 1.94 L17.82 1.96 L17.79 1.8 L18.04 1.52 L18.13 1.43 L17.96 1.06 L17.78 0.73 L17.45 -0.03 L17.56 -0.19 L17.28 -0.39 L16.78 -1.38 L16.8 -1.47 L16.68 -1.57 L16.53 -2 L15.98 -3 L15.82 -3.3 L16.73 -3.76 L17.19 -2.76 L17.15 -2.49 L17.43 -2.21 L17.62 -1.73 L18.02 -0.8 L18.14 -0.52 L18.34 -0.12 L18.63 0.4 L19.08 1.23 L19.06 1.81 L17.98 3.03 L17.48 3.71 L17.16 3.7 L16.75 3.71 L16.19 2.88 L15.95 2.51 L15.94 2.34 L15.66 2.19 L15.22 1.53 L15.25 0.91 L15.43 0.75 L15.55 0.62 L16.05 0.19 L16.46 -0.22 L16.72 -0.31 L17.19 0.4 Z" />
		</g>
	</svg>