<svg xmlns="http://www.w3.org/2000/svg" viewBox="-31.485 -3.78 62.97 7.56">
		<g transform="scale(1,-1)">
			<path fill-rule="evenodd" d="M-28.945 -3.78 C-27.305 -3.78, -26.445 -2.46, -26.445 0 C-26.445 2.5, -27.295 3.78, -28.935 3.78 C-30.565 3.78, -31.485 2.5, -31.485 0 C-31.485 -2.46, -30.575 -3.78, -28.945 -3.78 Z M-28.945 -1.97 C-29.955 -1.97, -30.445 -1.14, -30.445 0.71 C-30.445 2.5, -29.945 3.39, -28.935 3.39 C-27.915 3.39, -27.385 2.5, -27.385 0.71 C-27.515 -1.08, -27.925 -1.97, -28.945 -1.97 Z" />
<path fill-rule="evenodd" d="M-28.935 -0.43 C-28.525 -0.43, -28.435 0.09, -28.435 0.46 C-28.435 1.16, -28.525 1.61, -28.935 1.61 C-29.395 1.61, -29.465 1.03, -29.465 0.46 C-29.465 0.09, -29.355 -0.43, -28.935 -0.43 Z" />
<path fill-rule="evenodd" d="M-24.845 -3.64 L-20.645 -3.64 L-20.645 -2.27 L-22.295 -2.22 L-22.295 3.65 L-22.895 3.65 C-23.225 3.65, -23.775 3.36, -24.355 3.01 L-24.455 2.1 L-23.225 2.75 L-23.475 -2.23 L-24.845 -2.27 L-24.845 -3.64 Z" />
<path fill-rule="evenodd" d="M-18.795 -2.23 L-19.045 -3.64 L-14.255 -3.64 L-14.365 -2.22 L-16.745 -2.22 C-14.285 0.01, -14.395 0.67, -14.395 1.7 C-14.395 2.97, -15.365 3.78, -16.875 3.78 C-17.445 3.78, -18.075 3.62, -18.875 3.3 L-18.935 2.3 C-18.155 2.74, -17.475 2.95, -16.855 2.95 C-15.975 2.95, -15.385 2.41, -15.385 1.64 C-15.385 1.4, -15.445 1.16, -15.565 0.92 C-15.825 0.42, -16.205 -0.16, -17.395 -0.93 C-18.075 -1.37, -18.725 -1.81, -18.795 -2.23 Z" />
<path fill-rule="evenodd" d="M-10.705 -3.78 C-8.885 -3.78, -7.855 -2.99, -7.855 -1.42 C-7.855 -0.49, -8.195 0.12, -9.355 0.29 C-8.415 0.63, -8.025 1.09, -8.025 1.89 C-8.025 3.05, -8.955 3.78, -10.455 3.78 C-11.035 3.78, -11.455 3.7, -12.205 3.49 L-12.435 2.79 C-11.695 3.04, -11.085 3.13, -10.545 3.13 C-9.555 3.13, -8.735 2.76, -8.735 1.96 C-8.735 1.04, -9.415 0.76, -10.385 0.76 L-11.335 0.76 L-11.515 -0.02 L-10.575 -0.02 C-9.495 -0.02, -8.925 -0.61, -8.925 -1.28 C-8.925 -1.94, -9.235 -2.3, -10.645 -2.3 C-10.905 -2.3, -11.845 -2.22, -12.205 -2.08 L-12.655 -3.42 C-11.965 -3.66, -11.315 -3.78, -10.705 -3.78 Z" />
<path fill-rule="evenodd" d="M-5.675 -1.64 L-5.665 -1.63 L-3.405 -1.61 L-3.535 -3.64 L-1.985 -3.64 L-2.155 -1.61 L-1.205 -1.6 L-1.205 -0.58 L-2.235 -0.61 L-2.535 3.08 L-2.525 3.1 L-2.545 3.11 L-2.585 3.66 L-3.085 3.63 L-6.255 -0.73 L-6.135 -1.63 L-5.685 -1.63 L-5.675 -1.64 Z M-5.045 -0.69 L-3.175 2.12 L-3.345 -0.64 L-5.045 -0.69 Z" />
<path fill-rule="evenodd" d="M2.315 -3.78 C4.095 -3.78, 5.115 -2.87, 5.115 -1.3 C5.115 0.34, 3.665 0.82, 2.465 0.82 L1.495 0.82 L1.395 2.92 L4.625 2.92 L4.595 3.65 L0.675 3.59 L0.515 -0.12 C1.305 -0.02, 1.925 0.04, 2.445 0.04 C3.235 0.04, 3.975 -0.02, 3.975 -1.15 C3.975 -1.65, 3.525 -2.27, 2.395 -2.27 C1.695 -2.27, 1.375 -2.15, 0.735 -1.8 L0.395 -3.47 C1.075 -3.68, 1.705 -3.78, 2.315 -3.78 Z" />
<path fill-rule="evenodd" d="M9.315 -3.78 C10.785 -3.78, 11.755 -2.8, 11.755 -1.3 C11.755 0.23, 10.845 1.18, 9.375 1.18 C8.685 1.18, 8.155 1.02, 7.695 0.49 C7.795 2.33, 8.475 3, 9.775 3 L11.275 3 L11.275 3.78 L9.735 3.78 C7.895 3.78, 6.715 2.3, 6.715 0 C6.715 -2.46, 7.635 -3.78, 9.315 -3.78 Z M9.315 -2.48 C8.435 -2.48, 7.875 -1.96, 7.875 -1.3 C7.875 -0.25, 8.435 0.4, 9.315 0.4 C10.205 0.4, 10.765 -0.25, 10.765 -1.3 C10.765 -1.96, 10.205 -2.48, 9.315 -2.48 Z" />
<path fill-rule="evenodd" d="M15.225 -3.64 L16.955 -3.64 L18.035 3.51 L13.385 3.63 L13.355 2.92 L17.015 2.78 L15.225 -3.64 Z" />
<path fill-rule="evenodd" d="M22.245 -3.78 C23.855 -3.78, 24.955 -3, 24.845 -1.59 C24.775 -0.66, 24.185 0.02, 23.235 0.24 C24.075 0.45, 24.475 1.18, 24.475 1.89 C24.475 2.93, 23.695 3.68, 22.245 3.68 C20.795 3.68, 20.015 2.93, 20.015 1.89 C20.015 1.18, 20.415 0.45, 21.255 0.24 C20.305 0.02, 19.735 -0.66, 19.645 -1.59 C19.505 -3, 20.635 -3.78, 22.245 -3.78 Z M22.255 -2.79 C21.315 -2.79, 20.785 -2.19, 20.765 -1.6 C20.745 -0.97, 21.305 -0.19, 22.245 -0.18 C23.195 -0.17, 23.725 -1.01, 23.725 -1.6 C23.725 -2.19, 23.195 -2.79, 22.255 -2.79 Z M22.245 0.73 C21.395 0.73, 20.895 1.34, 20.895 2.09 C20.895 2.82, 21.395 3.2, 22.245 3.2 C23.085 3.2, 23.595 2.82, 23.595 2.09 C23.595 1.34, 23.085 0.73, 22.245 0.73 Z" />
<path fill-rule="evenodd" d="M28.505 -3.77 C30.345 -3.77, 31.485 -3.64, 31.485 0 C31.485 2.79, 30.575 3.78, 28.885 3.78 C27.415 3.78, 26.455 2.8, 26.455 1.3 C26.455 -0.23, 27.365 -1.17, 28.825 -1.17 C29.525 -1.17, 29.985 -1.06, 30.505 -0.9 C30.405 -2.43, 29.835 -2.46, 28.825 -2.46 C27.765 -2.47, 27.465 -2.37, 27.045 -2.22 L26.815 -3.57 C27.425 -3.7, 27.735 -3.77, 28.505 -3.77 Z M28.755 -0.2 C27.865 -0.2, 27.345 0.42, 27.345 1.46 C27.345 2.49, 27.935 3.13, 28.805 3.13 C29.615 3.13, 30.095 2.62, 30.255 1.46 C30.465 -0.08, 29.945 -0.2, 28.755 -0.2 Z" />
		</g>
	</svg>