<svg xmlns="http://www.w3.org/2000/svg" viewBox="-29.411621 -4.528809 58.823242 9.057618">
		<g transform="scale(1,-1)">
			<path d="M-27.941895 -2.795409 Q-29.411621 -2.795409, -29.411621 -1.82373 L-29.411621 3.532716 Q-29.411621 4.504395, -27.946777 4.504395 L-25.515136 4.504395 Q-24.04541 4.504395, -24.04541 3.518067 L-24.04541 -1.848144 Q-24.035645 -2.795409, -25.524902 -2.795409 L-27.941895 -2.795409 Z M-27.937012 3.044434 L-27.937012 -1.359862 L-25.505371 -1.359862 L-25.510253 3.044434 L-27.937012 3.044434 Z" />
<path d="M-20.847167 3.566895 L-20.847167 -2.814941 L-22.307129 -3.332519 L-22.307128 3.044434 L-23.083496 3.044434 L-23.088378 4.528809 L-22.316895 4.523927 Q-20.842285 4.523927, -20.847167 3.566895 Z" />
<path d="M-19.89502 -2.795409 L-19.899902 -0.358886 L-16.008301 2.08252 L-16.003417 3.044434 L-17.941895 3.044434 Q-18.464355 3.044434, -18.464355 2.790528 L-18.464355 1.574708 L-19.909667 1.569825 L-19.909667 3.547364 Q-19.91455 4.519044, -18.449706 4.519044 L-16.018066 4.519044 Q-14.543456 4.514161, -14.54834 3.532716 L-14.54834 1.159669 L-18.464355 -1.345214 L-16.013184 -1.345214 L-16.008301 -0.607909 L-14.558105 -0.607909 L-14.562988 -2.795409 L-19.89502 -2.795409 Z" />
<path d="M-11.584473 0.139161 L-11.594238 1.105958 L-9.621582 3.073731 L-13.557129 3.073731 L-13.562012 4.519044 L-9.63623 4.519044 Q-8.166504 4.519044, -8.166504 3.532716 L-8.166504 2.541505 L-9.162598 1.574708 Q-8.166504 1.579591, -8.166504 0.856934 L-8.166504 -2.805175 Q-8.166504 -3.791503, -9.63623 -3.791503 L-12.067871 -3.791503 Q-13.562012 -3.791503, -13.562012 -2.810058 L-13.562012 -1.647948 L-12.087402 -1.647948 L-12.087402 -2.336425 L-9.621582 -2.336425 L-9.621582 0.144044 L-11.584473 0.139161 Z" />
<path d="M-7.20459 -2.795409 L-7.209473 -1.325683 L-6.369629 1.604005 L-7.209473 1.599122 L-7.199707 3.063966 L-4.782715 3.059083 Q-4.265137 3.059083, -4.592285 2.067872 L-5.559082 -1.345214 L-3.322754 -1.345214 L-3.317871 4.519044 L-1.867676 4.519044 L-1.85791 -3.78662 L-3.322754 -3.791503 L-3.327637 -2.795409 L-7.20459 -2.795409 Z" />
<path d="M2.565918 -3.771973 L1.11084 -3.771972 Q-0.856934 -3.771972, -0.856934 -2.312011 L-0.856934 -1.564941 L0.588379 -1.564941 Q0.588379 -2.326659, 1.101074 -2.326659 L2.55127 -2.32666 Q3.063965 -2.32666, 3.063965 -1.823731 L3.063965 0.114746 Q3.063965 0.612793, 2.580566 0.622558 L0.60791 0.622559 L0.603027 0.134278 L-0.852051 0.134278 L-0.852051 3.532716 L-0.856934 4.519044 L4.51416 4.519043 L4.509277 3.07373 L0.603027 3.07373 L0.612793 2.077637 L2.565918 2.08252 Q4.519043 1.853027, 4.504395 0.60791 L4.504395 -2.321778 Q4.504395 -3.771973, 2.565918 -3.771973 Z" />
<path d="M8.918457 -2.805176 L7.463379 -2.805176 Q5.495605 -2.805176, 5.495605 -1.345215 L5.500488 3.532715 Q5.500488 4.504394, 6.887207 4.519043 L9.899902 4.519043 L9.89502 3.07373 L6.955566 3.07373 L6.965332 1.159668 Q7.141113 2.077637, 7.44873 2.077637 L8.918457 2.082519 Q10.871582 1.853027, 10.856934 0.60791 L10.856934 -1.354981 Q10.856934 -2.805176, 8.918457 -2.805176 Z M6.970215 -0.852051 Q6.940918 -1.359863, 7.453613 -1.359863 L8.903809 -1.359863 Q9.416504 -1.359863, 9.416504 -0.856934 L9.416504 0.114746 Q9.416504 0.612793, 8.933105 0.622558 L6.960449 0.622558 L6.970215 -0.852051 Z" />
<path d="M16.70166 3.566894 L14.094238 -4.206543 L12.70752 -3.776856 L14.978027 3.044433 L13.288574 3.044433 L13.278809 2.268066 L11.828613 2.268066 L11.818848 4.528808 L16.706543 4.523926 L16.70166 3.566894 Z" />
<path d="M19.182129 0.832519 Q17.687988 1.26709, 17.697754 2.160644 L17.70752 3.054199 Q17.70752 4.51416, 19.177246 4.519043 L21.950684 4.519043 Q23.063965 4.523926, 23.063965 3.049316 L23.063965 2.13623 Q23.059082 1.228027, 21.604004 0.832519 Q23.054199 0.500488, 23.059082 -0.212403 L23.044434 -2.316895 Q23.054199 -3.737793, 21.628418 -3.737793 L18.850098 -3.737793 Q17.712402 -3.737793, 17.712402 -2.272949 L17.702637 -0.153809 Q17.687988 0.432129, 19.182129 0.832519 Z M19.631348 3.059082 Q19.172363 3.059082, 19.162598 2.575683 Q19.152832 2.092285, 20.388184 1.599121 Q21.604004 2.077637, 21.604004 2.565918 Q21.599121 3.059082, 21.125488 3.059082 L19.631348 3.059082 Z M21.101074 -2.321778 Q21.623535 -2.312012, 21.623535 -1.809082 L21.623535 -0.852051 Q21.618652 -0.358887, 21.008301 -0.114746 L20.397949 0.134277 L19.782715 -0.109863 Q19.162598 -0.349121, 19.177246 -0.827637 L19.157715 -1.818848 Q19.162598 -2.297363, 19.67041 -2.307129 L21.101074 -2.321778 Z" />
<path d="M25.98877 4.519043 L27.443848 4.519043 Q29.411621 4.519043, 29.411621 3.054199 L29.411621 0.617676 Q29.416504 -2.805176, 26.794434 -4.528809 L26.047363 -3.410645 Q27.956543 -1.818848, 27.941895 -0.368653 L25.98877 -0.373535 Q24.040527 -0.407715, 24.055176 1.101074 L24.055176 3.063965 Q24.055176 4.519043, 25.98877 4.519043 Z M27.956543 2.541504 Q27.966309 3.068847, 27.453613 3.068847 L26.003418 3.068847 Q25.490723 3.068847, 25.490723 2.565918 L25.490723 1.594238 Q25.490723 1.096191, 25.974121 1.086426 L27.946777 1.086426 L27.956543 2.541504 Z" />
		</g>
	</svg>