<svg xmlns="http://www.w3.org/2000/svg" viewBox="-30.6 -3.52 61.2 7.04">
		<g transform="scale(1,-1)">
			<path fill-rule="evenodd" d="M-30.6 2.68 L-30.6 -2.72 L-29.8 -3.52 L-26.1 -3.52 L-25.3 -2.72 L-25.3 2.68 L-26.1 3.48 L-29.8 3.48 L-30.6 2.68 Z" />
<path fill-rule="evenodd" d="M-29.7 -2.72 L-29.7 2.68 L-26.2 2.68 L-26.2 -2.72 L-29.7 -2.72 Z" />
<path fill-rule="evenodd" d="M-24.25 3.52 L-24.25 2.72 L-22.9 2.67 L-22.9 -2.46 L-24.15 -2.37 L-24.15 -3.12 L-22 -3.52 L-22 2.67 L-20.85 2.72 L-20.85 3.52 L-22.55 3.44 L-24.25 3.52 Z" />
<path fill-rule="evenodd" d="M-14.4 2.68 L-14.4 3.48 L-19.8 3.48 L-19.8 -0.04 L-15.3 -0.54 L-15.3 -2.72 L-19.7 -2.72 L-19.7 -3.52 L-15.2 -3.52 L-14.4 -2.72 L-14.4 0.13 L-18.9 0.63 L-18.9 2.68 L-14.4 2.68 Z" />
<path fill-rule="evenodd" d="M-8.9 3.48 L-13.5 3.48 L-13.5 2.68 L-9 2.68 L-9 0.28 L-12.9 0.28 L-12.9 -0.52 L-9.2 -0.52 L-9.2 -2.72 L-13.4 -2.72 L-13.4 -3.52 L-9.1 -3.52 L-8.3 -2.72 L-8.3 -0.61 L-8.87 -0.18 L-8.1 0.42 L-8.1 2.68 L-8.9 3.48 Z" />
<path fill-rule="evenodd" d="M-7.3 1.68 L-6.96 -3.52 L-6.1 -3.52 L-6.4 0.88 L-2.8 0.88 L-2.8 -3.52 L-1.9 -3.52 L-1.9 3.48 L-2.8 3.48 L-2.8 1.68 L-7.3 1.68 Z" />
<path fill-rule="evenodd" d="M4.7 -2.72 L0.2 -2.72 L0.2 -0.7 L4.7 -0.4 L4.7 2.68 L3.9 3.48 L-0.6 3.48 L-0.6 2.68 L3.8 2.68 L3.8 0.3 L-0.7 0 L-0.7 -3.52 L4.7 -3.52 L4.7 -2.72 Z" />
<path fill-rule="evenodd" d="M6.7 3.48 L5.9 2.68 L5.9 -2.72 L6.7 -3.52 L10.8 -3.52 L10.8 -2.72 L6.8 -2.72 L6.8 -0.92 L10.5 -0.92 L11.2 -0.22 L11.2 2.68 L10.4 3.48 L6.7 3.48 Z" />
<path fill-rule="evenodd" d="M6.8 2.68 L10.3 2.68 L10.3 -0.12 L6.8 -0.12 L6.8 2.68 Z" />
<path fill-rule="evenodd" d="M13.3 3.48 L16.7 -1.15 L16.7 -2.72 L13.1 -2.72 L13.1 -1.12 L12.2 -1.12 L12.2 -3.52 L17.6 -3.52 L17.6 -0.96 L14.37 3.48 L13.3 3.48 Z" />
<path fill-rule="evenodd" d="M19.6 -0.57 L23.1 -0.57 L23.1 -2.72 L19.6 -2.72 L19.6 -0.57 Z" />
<path fill-rule="evenodd" d="M19.4 2.68 L23.3 2.68 L23.3 0.23 L19.4 0.23 L19.4 2.68 Z" />
<path fill-rule="evenodd" d="M19.3 3.48 L18.5 2.68 L18.5 0.42 L19.27 -0.18 L18.7 -0.61 L18.7 -2.72 L19.5 -3.52 L23.2 -3.52 L24 -2.72 L24 -0.61 L23.43 -0.18 L24.2 0.42 L24.2 2.68 L23.4 3.48 L19.3 3.48 Z" />
<path fill-rule="evenodd" d="M29.8 -3.52 L30.6 -2.72 L30.6 2.68 L29.8 3.48 L25.7 3.48 L25.7 2.68 L29.7 2.68 L29.7 0.88 L26 0.88 L25.3 0.18 L25.3 -2.72 L26.1 -3.52 L29.8 -3.52 Z" />
<path fill-rule="evenodd" d="M29.7 -2.72 L26.2 -2.72 L26.2 0.08 L29.7 0.08 L29.7 -2.72 Z" />
		</g>
	</svg>