<svg xmlns="http://www.w3.org/2000/svg" viewBox="-22.109375 -4.179688 44.21875 8.359376">
		<g transform="scale(1,-1)">
			<path fill-rule="evenodd" d="M-20.03418 -4.08203 Q-20.449219 -4.08203, -20.825195 -3.884277 Q-21.201172 -3.686523, -21.489258 -3.22998 Q-21.777344 -2.773437, -21.943359 -2.006835 Q-22.109375 -1.240234, -22.109375 -0.102538 Q-22.109375 1.035157, -21.943359 1.801759 Q-21.777344 2.56836, -21.489258 3.024903 Q-21.201172 3.481446, -20.825195 3.6792 Q-20.449219 3.876954, -20.03418 3.876954 Q-19.614258 3.876954, -19.240723 3.6792 Q-18.867187 3.481446, -18.579101 3.024903 Q-18.291015 2.56836, -18.125 1.801759 Q-17.958984 1.035157, -17.958984 -0.102538 Q-17.958984 -1.240234, -18.125 -2.006835 Q-18.291015 -2.773437, -18.579101 -3.22998 Q-18.867187 -3.686523, -19.240723 -3.884277 Q-19.614258 -4.08203, -20.03418 -4.08203 Z M-20.03418 -3.227538 Q-19.824219 -3.227538, -19.626465 -3.093261 Q-19.428711 -2.958984, -19.267578 -2.617187 Q-19.106445 -2.27539, -19.01123 -1.665038 Q-18.916015 -1.054687, -18.916015 -0.102538 Q-18.916015 0.84961, -19.01123 1.459962 Q-19.106445 2.070313, -19.267578 2.41211 Q-19.428711 2.753907, -19.626465 2.888184 Q-19.824219 3.022462, -20.03418 3.022462 Q-20.24414 3.022462, -20.441894 2.888184 Q-20.639648 2.753907, -20.79834 2.41211 Q-20.957031 2.070313, -21.052246 1.459962 Q-21.147461 0.84961, -21.147461 -0.102538 Q-21.147461 -1.054687, -21.052246 -1.665038 Q-20.957031 -2.27539, -20.79834 -2.617187 Q-20.639648 -2.958984, -20.441894 -3.093261 Q-20.24414 -3.227538, -20.03418 -3.227538 Z" />
<path fill-rule="evenodd" d="M-15.678711 -3.989257 L-16.606445 -3.989257 L-16.606445 3.344727 L-15.71289 4.179688 L-15.678711 4.179688 L-15.678711 -3.989257 Z" />
<path fill-rule="evenodd" d="M-10.961914 -3.984374 L-14.633789 -3.984374 L-12.65625 0.063477 Q-12.011719 1.381837, -12.011719 2.021485 Q-12.011719 2.397462, -12.238769 2.714845 Q-12.46582 3.032227, -12.958984 3.032227 Q-13.183594 3.032227, -13.466797 2.941895 Q-13.75 2.851563, -14.038086 2.63672 L-14.482422 3.34961 Q-14.15039 3.637696, -13.742676 3.762208 Q-13.334961 3.88672, -12.939453 3.88672 Q-12.041015 3.88672, -11.54541 3.347169 Q-11.049805 2.807618, -11.049805 1.972657 Q-11.049805 1.611329, -11.149902 1.250001 Q-11.25 0.888673, -11.455078 0.439454 Q-11.660156 -0.009765, -11.972656 -0.649413 L-13.198242 -3.129882 L-10.961914 -3.129882 L-10.961914 -3.984374 Z" />
<path fill-rule="evenodd" d="M-8.730469 -4.08203 Q-9.179687 -4.08203, -9.584961 -3.962402 Q-9.990234 -3.842773, -10.224609 -3.691405 L-9.790039 -2.944335 Q-9.541015 -3.090819, -9.267578 -3.159179 Q-8.99414 -3.227538, -8.754883 -3.227538 Q-8.134765 -3.227538, -7.751465 -2.817382 Q-7.368164 -2.407226, -7.368164 -1.723632 Q-7.368164 -0.996093, -7.788086 -0.603027 Q-8.208008 -0.20996, -8.813476 -0.20996 Q-8.959961 -0.20996, -9.111328 -0.239257 Q-9.262695 -0.268554, -9.448242 -0.346679 L-9.477539 -0.327148 L-9.345703 -0.068359 L-7.919922 2.934571 L-9.868164 2.934571 L-9.868164 3.793946 L-6.552734 3.793946 L-8.076172 0.478516 Q-7.553711 0.405274, -7.180176 0.087891 Q-6.80664 -0.229491, -6.606445 -0.698241 Q-6.40625 -1.166991, -6.40625 -1.699218 Q-6.40625 -2.392577, -6.699219 -2.932128 Q-6.992187 -3.471679, -7.514648 -3.776855 Q-8.037109 -4.08203, -8.730469 -4.08203 Z" />
<path fill-rule="evenodd" d="M-1.923828 -3.989258 L-2.851562 -3.989257 L-2.851562 -2.348632 L-5.507812 -2.348632 L-3.945312 3.789062 L-3.007812 3.789062 L-4.375 -1.489257 L-2.851562 -1.489257 L-2.851562 0.307617 L-1.953125 1.264648 L-1.923828 1.264648 L-1.923828 -1.489258 L-1.196289 -1.489258 L-1.196289 -2.348633 L-1.923828 -2.348633 L-1.923828 -3.989258 Z" />
<path fill-rule="evenodd" d="M0.898438 -4.082031 Q0.59082 -4.082031, 0.195313 -3.999024 Q-0.200195 -3.916016, -0.625 -3.691406 L-0.209961 -2.910156 Q0.039063 -3.071289, 0.300293 -3.149414 Q0.561524 -3.227539, 0.800781 -3.227539 Q1.166992 -3.227539, 1.494141 -3.049317 Q1.821289 -2.871094, 2.026367 -2.512207 Q2.231445 -2.15332, 2.231445 -1.616211 Q2.231445 -0.908203, 1.906738 -0.505371 Q1.582031 -0.102539, 0.927735 -0.102539 Q0.708008 -0.102539, 0.427246 -0.183106 Q0.146485 -0.263672, -0.126953 -0.458985 L-0.161133 -0.444336 L-0.161133 3.789062 L2.753906 3.789062 L2.753906 2.929687 L0.761719 2.929687 L0.761719 0.742187 Q0.810547 0.74707, 0.864258 0.749512 Q0.917969 0.751953, 0.976563 0.751953 Q2.075195 0.751953, 2.634277 0.08789 Q3.19336 -0.576172, 3.19336 -1.640625 Q3.19336 -2.441406, 2.873535 -2.98584 Q2.553711 -3.530274, 2.03125 -3.806153 Q1.508789 -4.082031, 0.898438 -4.082031 Z" />
<path fill-rule="evenodd" d="M6.264649 -4.077149 Q5.361328 -4.077149, 4.785156 -3.327637 Q4.208985 -2.578125, 4.208985 -1.049805 Q4.208985 0.488281, 4.84375 1.804199 Q5.478516 3.120117, 6.708985 3.979492 L7.167969 3.232422 Q6.625977 2.84668, 6.218262 2.333984 Q5.810547 1.821289, 5.568848 1.281738 Q5.327149 0.742187, 5.27832 0.268555 Q5.53711 0.571289, 5.793457 0.695801 Q6.049805 0.820312, 6.362305 0.820312 Q6.860352 0.820312, 7.302246 0.549316 Q7.744141 0.27832, 8.022461 -0.266113 Q8.300781 -0.810547, 8.300781 -1.63086 Q8.300781 -2.446289, 8.02002 -2.990723 Q7.739258 -3.535156, 7.275391 -3.806153 Q6.811524 -4.077149, 6.264649 -4.077149 Z M6.28418 -3.212891 Q6.542969 -3.212891, 6.784668 -3.061524 Q7.026367 -2.910156, 7.182617 -2.563477 Q7.338867 -2.216797, 7.338867 -1.625977 Q7.338867 -1.030274, 7.182617 -0.683594 Q7.026367 -0.336914, 6.784668 -0.185547 Q6.542969 -0.03418, 6.28418 -0.03418 Q6.020508 -0.03418, 5.786133 -0.187988 Q5.551758 -0.341797, 5.402832 -0.690918 Q5.253906 -1.040039, 5.253906 -1.625977 Q5.253906 -2.207031, 5.402832 -2.556153 Q5.551758 -2.905274, 5.786133 -3.059082 Q6.020508 -3.212891, 6.28418 -3.212891 Z" />
<path fill-rule="evenodd" d="M10.087891 -3.989258 L9.169922 -3.989258 L11.181641 2.93457 L8.754883 2.93457 L8.754883 3.789062 L12.373047 3.789062 L10.087891 -3.989258 Z" />
<path fill-rule="evenodd" d="M15.053711 -4.082031 Q14.467774 -4.082031, 13.999024 -3.791504 Q13.530274 -3.500977, 13.259277 -2.978516 Q12.988281 -2.456055, 12.988281 -1.767578 Q12.988281 -1.049805, 13.261719 -0.524903 Q13.535156 0, 13.964844 0.292969 Q13.647461 0.571289, 13.457031 1.005859 Q13.266602 1.44043, 13.266602 1.982422 Q13.266602 2.597656, 13.518067 3.041992 Q13.769531 3.486328, 14.177246 3.728027 Q14.584961 3.969726, 15.053711 3.969726 Q15.522461 3.969726, 15.927735 3.730469 Q16.333008 3.491211, 16.584473 3.046875 Q16.835938 2.602539, 16.835938 1.987305 Q16.835938 1.445312, 16.645508 1.008301 Q16.455078 0.571289, 16.137695 0.292969 Q16.572266 0.004883, 16.845703 -0.522461 Q17.119141 -1.049805, 17.119141 -1.767578 Q17.119141 -2.456055, 16.848145 -2.978516 Q16.577149 -3.500977, 16.11084 -3.791504 Q15.644531 -4.082031, 15.053711 -4.082031 Z M15.053711 0.629883 Q15.351563 0.629883, 15.612793 0.915527 Q15.874024 1.201172, 15.874024 1.894531 Q15.874024 2.553711, 15.612793 2.834472 Q15.351563 3.115234, 15.053711 3.115234 Q14.75586 3.115234, 14.492188 2.834472 Q14.228516 2.553711, 14.228516 1.894531 Q14.228516 1.201172, 14.492188 0.915527 Q14.75586 0.629883, 15.053711 0.629883 Z M15.053711 -3.227539 Q15.532227 -3.227539, 15.844727 -2.841797 Q16.157227 -2.456055, 16.157227 -1.699219 Q16.157227 -0.90332, 15.844727 -0.52002 Q15.532227 -0.136719, 15.053711 -0.136719 Q14.580078 -0.136719, 14.265137 -0.52002 Q13.950195 -0.90332, 13.950195 -1.699219 Q13.950195 -2.456055, 14.265137 -2.841797 Q14.580078 -3.227539, 15.053711 -3.227539 Z" />
<path fill-rule="evenodd" d="M19.584961 -4.179688 L19.121094 -3.427735 Q19.667969 -3.032227, 20.078125 -2.514649 Q20.488281 -1.99707, 20.734863 -1.447754 Q20.981445 -0.898438, 21.030274 -0.424805 Q20.771485 -0.732422, 20.515137 -0.859375 Q20.258789 -0.986328, 19.941406 -0.986328 Q19.448242 -0.986328, 18.999024 -0.710449 Q18.549805 -0.43457, 18.269043 0.117187 Q17.988281 0.668945, 17.988281 1.499023 Q17.988281 2.329101, 18.271485 2.878418 Q18.554688 3.427734, 19.020996 3.701172 Q19.487305 3.974609, 20.03418 3.974609 Q20.942383 3.974609, 21.525879 3.217773 Q22.109375 2.460937, 22.109375 0.908203 Q22.109375 -0.605469, 21.484375 -1.933594 Q20.859375 -3.261719, 19.584961 -4.179688 Z M20.004883 -0.131836 Q20.258789 -0.131836, 20.500488 0.024414 Q20.742188 0.180664, 20.900879 0.537109 Q21.05957 0.893555, 21.05957 1.49414 Q21.05957 2.099609, 20.900879 2.453613 Q20.742188 2.807617, 20.500488 2.963867 Q20.258789 3.120117, 20.004883 3.120117 Q19.750977 3.120117, 19.506836 2.963867 Q19.262695 2.807617, 19.104004 2.453613 Q18.945313 2.099609, 18.945313 1.49414 Q18.945313 0.893555, 19.104004 0.537109 Q19.262695 0.180664, 19.506836 0.024414 Q19.750977 -0.131836, 20.004883 -0.131836 Z" />
		</g>
	</svg>